<svg width="35" height="35" viewBox="0 0 35 35" fill="none" xmlns="http://www.w3.org/2000/svg">
<path d="M26.9792 29.1696C26.9792 29.363 26.9023 29.5485 26.7656 29.6852C26.6289 29.8219 26.4434 29.8988 26.25 29.8988H13.125V32.0863H26.25C27.0236 32.0863 27.7654 31.779 28.3124 31.232C28.8594 30.685 29.1667 29.9432 29.1667 29.1696V14.3354C29.1667 13.5625 28.859 12.8188 28.3121 12.2734L19.8115 3.77273L19.74 3.7144L19.6875 3.67065C19.5874 3.5757 19.4807 3.48798 19.3681 3.40815C19.3302 3.38499 19.2913 3.36358 19.2515 3.34398C19.2272 3.33328 19.2038 3.32162 19.1815 3.30898L19.1085 3.26669C19.0308 3.22002 18.9501 3.17773 18.8665 3.13981C18.5759 3.02439 18.2686 2.95644 17.9565 2.93856C17.9273 2.93662 17.8986 2.93321 17.8704 2.92835L17.7508 2.91669H8.75C7.97646 2.91669 7.23459 3.22398 6.68761 3.77096C6.14063 4.31794 5.83334 5.05981 5.83334 5.83335V16.4165C6.53602 16.1688 7.27577 16.0425 8.02084 16.0431V5.83481C8.02084 5.64142 8.09766 5.45596 8.23441 5.31921C8.37115 5.18247 8.55662 5.10565 8.75 5.10565H17.5V11.6667C17.5 12.4402 17.8073 13.1821 18.3543 13.7291C18.9013 14.2761 19.6431 14.5834 20.4167 14.5834H26.9792V29.1696ZM19.6875 6.74044L25.3429 12.3959H20.4167C20.2233 12.3959 20.0378 12.319 19.9011 12.1823C19.7643 12.0455 19.6875 11.8601 19.6875 11.6667V6.74044ZM13.125 22.6056C13.125 23.2759 12.993 23.9397 12.7365 24.5589C12.48 25.1782 12.104 25.7409 11.63 26.2148C11.1561 26.6888 10.5934 27.0648 9.97412 27.3213C9.35485 27.5778 8.69113 27.7098 8.02084 27.7098C7.35055 27.7098 6.68682 27.5778 6.06756 27.3213C5.44829 27.0648 4.88561 26.6888 4.41165 26.2148C3.93768 25.7409 3.56171 25.1782 3.3052 24.5589C3.04869 23.9397 2.91667 23.2759 2.91667 22.6056C2.91667 21.2519 3.45443 19.9537 4.41165 18.9965C5.36886 18.0392 6.66713 17.5015 8.02084 17.5015C9.37455 17.5015 10.6728 18.0392 11.63 18.9965C12.5872 19.9537 13.125 21.2519 13.125 22.6056ZM4.37501 28.0627V32.5019C4.37474 32.7068 4.43527 32.9071 4.54894 33.0776C4.6626 33.2481 4.82429 33.381 5.01353 33.4595C5.20277 33.5381 5.41106 33.5587 5.61203 33.5188C5.813 33.4789 5.99761 33.3803 6.1425 33.2354L8.02084 31.3586L9.89917 33.2369C10.0441 33.3818 10.2287 33.4804 10.4296 33.5203C10.6306 33.5602 10.8389 33.5395 11.0281 33.461C11.2174 33.3825 11.3791 33.2495 11.4927 33.0791C11.6064 32.9086 11.6669 32.7082 11.6667 32.5034V28.0642C10.5874 28.7851 9.31869 29.1698 8.02084 29.1696C6.72299 29.1698 5.45424 28.7836 4.37501 28.0627Z" fill="#F8F8F8"/>
</svg>
