<svg width="45" height="42" viewBox="0 0 45 42" fill="none" xmlns="http://www.w3.org/2000/svg">
<g clip-path="url(#clip0_319_1639)">
<path d="M28.5555 5.05993V2.18204C28.5555 1.34015 29.2428 0.652893 30.0847 0.652893C30.9266 0.652893 31.6138 1.34015 31.6138 2.18204V5.05993" stroke="white" stroke-width="1.5" stroke-linecap="round" stroke-linejoin="round"/>
<path d="M26.3391 14.0544L20.1538 24.7584L17.1299 29.9902C16.3653 31.3217 16.4083 33.7357 17.7398 34.5003L22.5592 26.1501L28.7617 15.4203" stroke="white" stroke-width="1.5" stroke-linecap="round" stroke-linejoin="round"/>
<path d="M20.1538 24.7584L22.5592 26.1501" stroke="white" stroke-width="1.5" stroke-linecap="round" stroke-linejoin="round"/>
<path d="M33.9076 13.9857L40.1358 24.7584L43.1512 29.9902C43.9243 31.3217 43.8728 33.7357 42.5498 34.5003L37.7304 26.1501L31.5193 15.3945" stroke="white" stroke-width="1.5" stroke-linecap="round" stroke-linejoin="round"/>
<path d="M40.1358 24.7584L37.7218 26.1501" stroke="white" stroke-width="1.5" stroke-linecap="round" stroke-linejoin="round"/>
<path d="M32.4471 28.6758C30.1105 28.126 27.413 27.7308 24.5007 27.559" stroke="white" stroke-width="1.5" stroke-linecap="round" stroke-linejoin="round"/>
<path d="M36.1412 29.7926C35.5828 29.5778 34.9814 29.3717 34.3457 29.1741" stroke="white" stroke-width="1.5" stroke-linecap="round" stroke-linejoin="round"/>
<path d="M38.6153 30.9867C38.3919 30.8493 38.16 30.7204 37.9194 30.5916" stroke="white" stroke-width="1.5" stroke-linecap="round" stroke-linejoin="round"/>
<path d="M15.4976 27.6965C6.93269 28.5126 0.644287 31.2015 0.644287 34.3972C0.644287 38.2373 9.72467 41.3557 20.9356 41.3557C31.1671 41.3557 39.6289 38.7613 41.0206 35.3852" stroke="white" stroke-width="1.5" stroke-linecap="round" stroke-linejoin="round"/>
<path d="M30.0933 15.5921C33.0539 15.5921 35.4539 13.1921 35.4539 10.2315C35.4539 7.27094 33.0539 4.87091 30.0933 4.87091C27.1327 4.87091 24.7327 7.27094 24.7327 10.2315C24.7327 13.1921 27.1327 15.5921 30.0933 15.5921Z" stroke="white" stroke-width="1.5" stroke-linecap="round" stroke-linejoin="round"/>
<path d="M30.0933 12.3621C31.2699 12.3621 32.2238 11.4082 32.2238 10.2316C32.2238 9.05493 31.2699 8.10107 30.0933 8.10107C28.9166 8.10107 27.9628 9.05493 27.9628 10.2316C27.9628 11.4082 28.9166 12.3621 30.0933 12.3621Z" stroke="white" stroke-width="1.5" stroke-linecap="round" stroke-linejoin="round"/>
</g>
<defs>
<clipPath id="clip0_319_1639">
<rect width="44.3023" height="42" fill="white"/>
</clipPath>
</defs>
</svg>
