<svg width="40" height="42" viewBox="0 0 40 42" fill="none" xmlns="http://www.w3.org/2000/svg">
<g clip-path="url(#clip0_319_1651)">
<path d="M23.0809 40.4544H8.23981C7.42048 40.4544 6.75012 39.784 6.75012 38.9647V7.03876C6.75012 6.21943 7.42048 5.54907 8.23981 5.54907H29.98C30.371 5.54907 30.7528 5.70735 31.0321 5.98667L34.2349 10.0275C34.5143 10.3068 34.6725 10.6885 34.6725 11.0796V24.3751" stroke="white" stroke-width="1.5" stroke-linecap="round" stroke-linejoin="round"/>
<path d="M6.7408 35.6036H2.18793C1.3686 35.6036 0.698242 34.9333 0.698242 34.114V2.18799C0.698242 1.36866 1.3686 0.698303 2.18793 0.698303H23.0902C23.4812 0.698303 23.863 0.856583 24.1423 1.1359L26.5072 5.17669" stroke="white" stroke-width="1.5" stroke-linecap="round" stroke-linejoin="round"/>
<path d="M31.1532 41.311C35.1795 41.311 38.4434 38.0471 38.4434 34.0208C38.4434 29.9946 35.1795 26.7307 31.1532 26.7307C27.127 26.7307 23.863 29.9946 23.863 34.0208C23.863 38.0471 27.127 41.311 31.1532 41.311Z" stroke="white" stroke-width="1.5" stroke-linecap="round" stroke-linejoin="round"/>
<path d="M31.1532 30.3804V34.0209L33.6391 35.6595" stroke="white" stroke-width="1.5" stroke-linecap="round" stroke-linejoin="round"/>
<path d="M11.6102 12.2341H29.3283" stroke="white" stroke-width="1.5" stroke-linecap="round" stroke-linejoin="round"/>
<path d="M11.6102 17.178H29.1141" stroke="white" stroke-width="1.5" stroke-linecap="round" stroke-linejoin="round"/>
<path d="M11.6102 22.1126H29.1141" stroke="white" stroke-width="1.5" stroke-linecap="round" stroke-linejoin="round"/>
<path d="M11.6102 27.0472H22.606" stroke="white" stroke-width="1.5" stroke-linecap="round" stroke-linejoin="round"/>
<path d="M11.6102 31.9911H16.61" stroke="white" stroke-width="1.5" stroke-linecap="round" stroke-linejoin="round"/>
</g>
<defs>
<clipPath id="clip0_319_1651">
<rect width="39.1417" height="42" fill="white"/>
</clipPath>
</defs>
</svg>
