<svg width="46" height="42" viewBox="0 0 46 42" fill="none" xmlns="http://www.w3.org/2000/svg">
<g clip-path="url(#clip0_319_1634)">
<path d="M38.6254 6.12595C38.1998 3.42019 36.7405 1.48968 34.1868 0.501627C33.6699 0.304015 33.1683 0.167208 32.6667 0.0912032C32.3171 0.0303997 31.9826 -2.04425e-06 31.6482 -0.0152029H31.6026C30.0369 -0.0304038 28.5472 0.532028 27.1944 1.67209C26.0999 2.58415 25.3551 3.66341 24.9902 4.89468C24.8686 5.2899 24.7926 5.70032 24.747 6.12595C24.7014 6.65798 24.7166 7.20521 24.7926 7.76764C24.899 8.54289 25.1727 9.25733 25.4919 9.97177C25.5223 10.0326 25.5527 10.0934 25.5831 10.139C25.5831 10.1694 25.5983 10.1846 25.6135 10.215C25.7959 10.595 25.9935 10.9446 26.1911 11.3094C26.1911 11.3246 26.1911 11.3398 26.2063 11.355C26.4495 11.7959 26.7079 12.2063 26.9359 12.6471C26.9359 12.6471 28.7905 15.3073 28.9273 15.5049C29.1705 15.8697 29.4441 16.2193 29.7025 16.5537C29.7937 16.6754 29.8545 16.7362 29.8545 16.7362C30.2041 17.2074 30.5842 17.6634 30.949 18.1042C31.329 18.5907 31.6634 18.7123 32.0282 18.4387C32.1498 18.3778 32.2563 18.2562 32.3779 18.1042C32.7427 17.6482 33.0923 17.1922 33.4419 16.7362C33.4571 16.721 33.4723 16.7058 33.4875 16.6906C33.7459 16.3561 36.4213 12.4799 37.1357 11.0814C37.2725 10.8078 37.4093 10.5494 37.5158 10.3062C37.607 10.1238 37.6982 9.94137 37.7742 9.77416C38.0022 9.28773 38.1998 8.87731 38.3062 8.61889C38.6102 7.87405 38.7014 6.85559 38.5798 6.09555L38.6254 6.12595ZM36.1173 10.2758C35.2508 11.9783 34.1412 13.5136 33.0011 15.0641C32.5755 15.6113 32.1498 16.1737 31.6938 16.7666C30.3105 15.0489 29.0185 13.3008 27.9088 11.4463C27.8176 11.3094 27.7416 11.1574 27.6504 11.0206C27.5136 10.7926 27.392 10.5494 27.2704 10.3062C27.2248 10.215 27.164 10.1086 27.1184 10.0174C27.0576 9.91096 27.012 9.78936 26.9664 9.68295C26.8295 9.42454 26.7079 9.15092 26.5863 8.89251C26.0999 7.85885 26.0239 6.82519 26.2215 5.86753C26.4951 4.62106 27.2096 3.5114 28.076 2.81216C28.6384 2.35613 29.2313 2.00651 29.8545 1.7785C30.493 1.52008 31.1618 1.42888 31.8306 1.45928C31.9218 1.45928 31.9826 1.45928 32.089 1.48968C32.7123 1.53529 33.3659 1.7177 34.0196 2.02171C34.3996 2.20412 34.734 2.40174 35.0532 2.61455C36.4821 3.64821 37.1965 5.15309 37.1965 7.0532C37.1965 7.19001 37.1965 7.32682 37.1661 7.46362C37.1205 7.85885 36.9989 8.25407 36.8469 8.63409C36.8165 8.7557 36.7709 8.8621 36.7253 8.98371C36.7253 8.99891 36.7101 9.02931 36.6949 9.04451C36.5125 9.48534 36.3149 9.89576 36.0869 10.3062L36.1173 10.2758Z" fill="white"/>
<path d="M33.4875 3.937C32.9707 3.58738 32.3626 3.38977 31.6938 3.38977C31.4658 3.38977 31.2378 3.42017 31.025 3.46577C30.4017 3.58738 29.8393 3.9066 29.4137 4.31702C28.836 4.90986 28.4712 5.7003 28.4712 6.58195C28.4712 6.77956 28.4712 6.97718 28.532 7.15959C28.608 7.61561 28.7904 8.04124 29.0641 8.42126C29.1401 8.54286 29.2313 8.64927 29.3377 8.75568C29.3529 8.77088 29.3681 8.78608 29.3985 8.81648C29.9761 9.42452 30.797 9.80454 31.6938 9.80454C33.0467 9.80454 34.1867 8.96849 34.6732 7.79802C34.8252 7.4332 34.9012 7.02278 34.9012 6.59715C34.9012 5.47229 34.3388 4.49943 33.4875 3.9218V3.937ZM31.6938 8.51246C30.8274 8.51246 30.1129 7.95003 29.8697 7.17479C29.8089 6.99238 29.7785 6.79477 29.7785 6.59715C29.7785 5.97392 30.0673 5.42669 30.5233 5.07707C30.8426 4.81865 31.253 4.66664 31.6938 4.66664C32.7427 4.66664 33.6395 5.54829 33.6243 6.61235C33.6243 7.67642 32.7579 8.51246 31.6938 8.51246Z" fill="white"/>
<path d="M25.6743 7.64607C25.3702 7.19004 24.899 6.85562 24.3062 6.62761C24.1998 6.58201 24.0782 6.5364 23.9414 6.506C22.4973 6.03478 21.2052 6.5364 20.5668 7.91968C20.0651 8.98374 19.5331 10.0478 19.1227 11.1423C18.4386 12.936 17.4506 14.4713 15.8697 15.5961C15.7481 15.6873 15.6265 15.8241 15.5201 15.9305C14.7144 16.7818 14.2888 17.8154 14.2736 19.0011C14.2736 19.4571 14.3192 19.898 14.3496 20.354C14.4104 21.4637 15.2009 22.1477 16.2953 21.9957C17.2986 21.8437 18.3018 21.6613 19.3203 21.5093C20.1259 21.4029 20.6276 20.9772 20.9316 20.2324C21.3876 19.0923 21.874 17.9675 22.3453 16.8426C22.4517 16.5538 22.6037 16.2954 22.9685 16.3562C23.3029 16.417 23.7438 16.9034 23.7134 17.1922C23.5917 18.2411 23.4701 19.2747 23.3333 20.3236C23.3029 20.5212 23.1813 20.7492 23.0141 20.886C21.7068 22.0413 20.3692 23.1814 19.0467 24.3062C18.8947 24.4278 18.6819 24.5342 18.4995 24.5646C17.6482 24.7166 16.7666 24.8535 15.9153 24.9751C14.076 25.2487 12.2367 25.5223 10.671 26.6624C9.94136 27.1944 9.18132 27.696 8.42127 28.1976C7.58523 28.7449 7.0988 29.5049 6.97719 30.493C6.93159 30.8426 6.85558 31.1922 6.79478 31.5418C6.73398 31.8763 6.56677 31.9827 6.24755 31.8763C5.70032 31.709 5.13789 31.557 4.57545 31.405C3.31378 31.0706 2.21932 31.4962 1.53528 32.6211C1.15526 33.2443 0.790438 33.8676 0.440818 34.506C-7.08428e-06 35.2812 -0.106413 36.1173 0.106399 36.9837C0.425617 38.1846 1.67209 39.4463 2.72095 39.5679C3.81541 39.6895 4.89467 39.8415 5.98914 39.8719C6.39956 39.8871 6.87079 39.7503 7.2052 39.5071C8.31487 38.7318 9.40933 37.9262 10.4582 37.0597C10.7774 36.8165 11.0358 36.4365 11.1574 36.0565C11.5983 34.81 11.5679 34.8252 12.8295 35.2508C13.2552 35.4029 13.7264 35.4941 14.1824 35.4485C14.8512 35.3877 14.836 35.3269 15.0489 35.9805C15.7481 38.1238 15.4593 37.8502 17.5722 38.8383C17.5722 38.8383 17.6026 38.8383 17.6178 38.8535C18.4995 39.2183 19.3355 38.9447 19.8067 38.1086C20.0651 37.6526 20.2932 37.1966 20.5364 36.7405C20.962 35.9197 20.9468 35.9349 21.7676 36.3605C22.1629 36.5581 22.2997 36.7709 22.1477 37.2422C21.8436 38.2454 22.0109 39.1879 22.6037 40.0543C22.8621 40.4343 23.1357 40.8296 23.4093 41.2096C24.0782 42.1368 25.1574 42.2584 26.0087 41.4984C26.5255 41.0424 27.0271 40.5408 27.544 40.0847C28.0304 39.6743 28.304 39.1879 28.3496 38.5494C28.38 38.063 28.5168 37.5918 28.532 37.1054C28.5624 36.5277 28.8208 36.2693 29.3681 36.1021C30.2801 35.8437 30.6449 35.2812 30.6601 34.3084V31.2986C30.6601 30.8882 30.8578 30.6754 31.2834 30.6754C32.241 30.6754 33.1987 30.6754 34.1563 30.6906C34.354 30.6906 34.5972 30.797 34.734 30.9338C35.19 31.3746 35.6004 31.8459 36.0261 32.3019C36.4821 32.7883 37.0293 32.9707 37.6982 32.8643C38.443 32.7427 39.1878 32.6363 39.9479 32.5299C41.316 32.3323 42.6992 32.1347 44.0673 31.9067C45.177 31.7242 45.785 30.8122 45.5418 29.7025C45.3594 28.8969 44.9034 28.304 44.1433 27.9544C43.3073 27.5744 42.4712 27.1944 41.6352 26.7992C41.1487 26.5711 41.1183 26.4799 41.392 26.0391C41.6808 25.5679 41.9696 25.0967 42.2584 24.6406C43.0033 23.455 43.0641 22.2541 42.4256 21.0076C42.1672 20.506 41.924 19.9892 41.6504 19.4875C41.5136 19.2291 41.5288 19.0315 41.7112 18.7883C42.2584 18.0283 42.8056 17.2682 43.3225 16.4778C44.0217 15.4441 43.6113 14.2736 42.4256 13.8632C41.7112 13.62 40.9815 13.4072 40.2519 13.1792C39.5071 12.936 39.4919 12.936 39.5071 12.1303C39.5223 11.5831 39.431 11.0511 39.0358 10.7014C38.975 10.6406 38.899 10.5798 38.8078 10.5342C38.7318 10.4886 38.6558 10.4582 38.595 10.3974C38.215 10.1238 37.9566 9.77419 37.759 9.36377C37.6982 9.80459 36.7861 10.8382 36.7861 10.8535C36.9229 10.9751 37.5461 11.3399 37.7438 11.4311C37.8502 11.4919 37.9414 11.5527 37.987 11.6135C38.1086 11.7503 38.1694 11.9327 38.1694 12.1607C38.1694 12.2975 38.1694 12.4343 38.1694 12.5559C38.215 13.696 38.5798 14.0456 39.8415 14.4409C40.5103 14.6537 41.1639 14.8513 41.8328 15.0793C42.3648 15.2617 42.4104 15.3681 42.1064 15.8241C41.6352 16.5234 41.1639 17.2226 40.6623 17.8915C40.0847 18.6363 40.0543 19.3811 40.5103 20.1868C40.7839 20.6732 41.0271 21.19 41.2704 21.7069C41.6352 22.4213 41.5896 23.1054 41.1944 23.7894C40.8751 24.3062 40.5711 24.8078 40.2519 25.3247C39.5375 26.4799 39.8567 27.468 41.1031 28.0304C41.8936 28.3953 42.684 28.7449 43.4745 29.1249C43.7025 29.2313 43.9305 29.3985 44.0673 29.5961C44.4473 30.1282 44.2801 30.493 43.6265 30.5842C41.62 30.8882 39.5983 31.1922 37.5917 31.4658C37.3941 31.4962 37.1053 31.3898 36.9685 31.253C36.5125 30.8122 36.1021 30.341 35.6764 29.8849C35.3116 29.5049 34.886 29.2921 34.354 29.2921C33.3051 29.2921 32.2562 29.2921 31.1922 29.2921C30.1281 29.3073 29.3681 30.0521 29.3377 31.1314C29.3073 31.6634 29.3377 32.1955 29.3377 32.7275C29.3377 33.2291 29.3377 33.7308 29.3377 34.2324C29.3377 34.5364 29.2617 34.734 28.9425 34.81C27.8176 35.0532 27.2704 35.7525 27.24 36.8925C27.24 36.8925 27.24 36.9229 27.24 36.9381C27.392 38.6102 26.2367 39.5071 25.1422 40.4495C24.899 40.6472 24.7014 40.632 24.5342 40.3735C24.2454 39.9631 23.9414 39.5679 23.6829 39.1423C23.3637 38.6558 23.3333 38.1238 23.4853 37.5614C23.8198 36.3757 23.5613 35.7677 22.4669 35.1596C22.2693 35.0532 22.0717 34.9468 21.874 34.8404C21.0228 34.4452 20.1259 34.7188 19.6547 35.5245C19.3355 36.0869 19.0315 36.6645 18.7579 37.2574C18.5755 37.6222 18.393 37.6678 17.9978 37.5462C17.025 37.2574 16.5689 36.6189 16.3865 35.6613C16.2345 34.8708 15.8545 34.2324 14.988 34.05C14.8208 34.0196 14.608 33.9588 14.4712 34.0196C13.8936 34.2628 13.4072 34.0348 12.8903 33.8372C12.6015 33.7308 12.3127 33.6092 12.0087 33.5636C11.1878 33.4115 10.3518 33.8828 10.1694 34.7644C9.98696 35.6461 9.50054 36.2085 8.7709 36.6797C8.02605 37.1662 7.35721 37.759 6.62757 38.2606C6.38436 38.4278 6.04994 38.5038 5.74592 38.5038C4.92508 38.4582 4.10423 38.3366 3.28338 38.2758C1.9001 38.1694 0.942447 36.5733 1.55048 35.3269C1.9153 34.582 2.35613 33.8828 2.79695 33.1835C3.10097 32.7275 3.557 32.5603 4.11943 32.7123C4.69706 32.8643 5.25949 33.0315 5.85233 33.1987C7.0684 33.5331 8.04125 32.9403 8.14766 31.6938C8.23886 30.3714 8.7709 29.3985 9.97176 28.7905C10.4278 28.5625 10.8382 28.228 11.2486 27.9088C12.4951 26.9816 13.9392 26.6168 15.4441 26.4191C16.5233 26.2823 17.5874 26.1151 18.6515 25.9023C19.0923 25.8111 19.5635 25.6287 19.9131 25.3551C21.3116 24.1998 22.6949 23.0293 24.0326 21.7981C24.3518 21.5093 24.5798 21.038 24.6558 20.5972C24.8534 19.5027 24.9294 18.3931 25.0966 17.2834C25.2638 16.189 24.1998 15.2921 23.3181 15.0489C22.4061 14.7905 21.5548 15.2465 21.1444 16.2042C20.658 17.3442 20.1715 18.4995 19.7003 19.6396C19.5787 19.9436 19.4115 20.1108 19.0771 20.1564C18.1194 20.278 17.1922 20.4452 16.2497 20.5972C15.8697 20.658 15.7025 20.5364 15.7025 20.1564C15.7025 19.7004 15.6265 19.2595 15.6417 18.8035C15.6721 18.0131 15.9913 17.329 16.5689 16.7818C17.0554 16.3106 17.5418 15.8241 18.0738 15.4137C18.7731 14.8665 19.2291 14.152 19.5939 13.3312C20.278 11.7199 21.0228 10.1542 21.7372 8.55812C22.0717 7.82848 22.5125 7.57006 23.1509 7.67647C24.6254 7.90448 25.2334 8.86214 25.2334 8.86214" fill="white"/>
<path d="M10.5342 15.3833C10.063 15.2769 9.59175 15.1705 9.12053 15.0945C8.13247 14.9577 7.34202 15.2921 6.80999 16.1585C6.47557 16.6906 6.14116 17.2226 5.83714 17.7698C5.54832 18.3019 5.1379 18.6515 4.56027 18.8643C3.4354 19.2747 2.82737 20.126 2.73616 21.3116C2.69056 21.8437 2.66016 22.3757 2.62976 22.9077H2.64496C2.62976 23.1357 2.59935 23.3638 2.59935 23.5766C2.58415 24.3974 2.87297 25.1119 3.60261 25.5071C4.74268 26.1303 5.94354 26.2975 7.06841 25.5071C8.29968 24.6558 9.51575 23.759 10.7166 22.8621C11.4159 22.3605 11.7655 21.6461 11.8567 20.81C11.9631 19.8068 12.0847 18.7883 12.1911 17.785C12.3127 16.6754 11.6287 15.6417 10.5342 15.3833ZM10.4582 20.734C10.3822 21.114 10.1238 21.5701 9.81977 21.8133C8.6797 22.6949 7.50923 23.5158 6.33877 24.367C5.66993 24.8534 4.97069 24.7166 4.33225 24.367C4.11944 24.2606 3.99783 23.8502 3.95223 23.5614C3.89143 23.2422 3.98263 22.8925 3.99783 22.5581C3.99783 22.4365 4.02824 22.2997 4.01303 22.1781C3.98263 21.0684 4.36265 20.2932 5.53312 19.9132C6.03475 19.7612 6.44517 19.2139 6.79479 18.7731C7.23562 18.2107 7.55484 17.5722 7.91966 16.9642C8.14767 16.5538 8.48209 16.3866 8.93812 16.4778C9.34854 16.5538 9.75896 16.6298 10.1694 16.721C10.671 16.8426 10.9142 17.1922 10.8534 17.6938C10.747 18.7123 10.671 19.746 10.4734 20.7644L10.4582 20.734Z" fill="white"/>
</g>
<defs>
<clipPath id="clip0_319_1634">
<rect width="45.6026" height="42" fill="white"/>
</clipPath>
</defs>
</svg>
