<svg width="62" height="42" viewBox="0 0 62 42" fill="none" xmlns="http://www.w3.org/2000/svg">
<g clip-path="url(#clip0_319_1704)">
<path d="M49.4648 13.4172L41.6365 0.736694L34.8002 3.05475L30.7338 10.8929H23.0036L10.8535 28.0917L5.05837 29.6829L0.736572 37.7175" stroke="white" stroke-width="1.5" stroke-linecap="round" stroke-linejoin="round"/>
<path d="M29.0444 34.1913L35.3896 27.3845" stroke="white" stroke-width="1.5" stroke-linecap="round" stroke-linejoin="round"/>
<path d="M43.8269 22.8269C43.8269 22.8269 47.0388 17.7194 49.8971 17.6702C52.1071 17.631 53.3447 20.224 51.9008 22.8269C50.4569 25.4298 52.2544 27.2764 54.0519 26.5201" stroke="white" stroke-width="1.5" stroke-linecap="round" stroke-linejoin="round"/>
<path d="M48.2371 24.3003C48.2371 24.3003 48.2076 24.2315 48.188 24.1922C48.0996 23.9761 47.9915 23.76 47.8638 23.5636C47.7951 23.4457 47.7067 23.318 47.6281 23.2002C47.5299 23.043 47.4317 22.8957 47.3334 22.7484C46.8227 22.0117 46.2923 21.4322 45.8601 20.9902C45.8405 20.9803 45.8306 20.9705 45.8208 20.9607C45.8012 20.9411 45.7619 20.9116 45.7422 20.8919C45.4279 20.5973 45.1038 20.3124 44.76 20.0472C44.7011 19.9981 44.6716 19.9785 44.6716 19.9785C43.8858 19.3695 43.0313 18.8882 42.0687 18.5641C40.9391 18.2006 39.9962 18.3283 39.1122 19.2909C34.8985 23.8092 30.6356 28.2979 26.3629 32.7671C25.6262 33.5332 25.4003 34.3583 25.5378 35.3503C26.0093 38.6113 29.2998 41.6267 32.6 41.7937C33.5135 41.8527 34.2698 41.5875 34.9377 40.8803C39.289 36.2343 43.6796 31.6277 48.0603 27.0014C48.3648 26.6969 48.5121 26.3138 48.5318 25.8817C48.5612 25.3218 48.4335 24.8012 48.2273 24.3101L48.2371 24.3003ZM43.7974 30.2722C40.615 33.6314 37.4326 36.9906 34.26 40.3597C33.7984 40.841 33.2974 40.9981 32.6884 40.949C30.7927 40.7919 29.2605 39.9177 28.0229 38.5327C27.0701 37.4621 26.4513 36.2441 26.3531 34.7904C26.3236 34.3092 26.4513 33.9064 26.8147 33.5234C30.8517 29.2802 34.8788 25.0173 38.8961 20.7643C38.9649 20.6955 39.0434 20.6169 39.0533 20.6071C40.3989 24.0842 42.8348 26.3728 46.42 27.4925C45.5556 28.406 44.6814 29.3391 43.7974 30.2722ZM47.687 25.7441C47.7362 26.2647 47.4415 26.5987 46.9111 26.5692C46.4593 26.5496 45.9681 26.4808 45.5556 26.304C43.2179 25.3021 41.4597 23.652 40.3007 21.3929C40.065 20.9312 39.898 20.4499 39.9569 19.9294C39.9962 19.4775 40.2418 19.2516 40.6838 19.2123C41.2142 19.1534 41.7053 19.3106 42.1964 19.5168C42.6384 19.6936 43.0608 19.9195 43.4536 20.1749C43.4733 20.1749 43.4831 20.1946 43.5126 20.2142C45.8208 21.5107 46.9013 23.544 47.029 23.7895V23.819H47.0388C47.1665 24.0449 47.2843 24.2806 47.3924 24.5262C47.5495 24.9093 47.6379 25.3316 47.687 25.754V25.7441Z" fill="white" stroke="white" stroke-width="0.4" stroke-miterlimit="10"/>
<path d="M10.8535 28.0917L19.7034 27.0014L26.137 19.065L33.3367 16.9532" stroke="white" stroke-width="1.5" stroke-linecap="round" stroke-linejoin="round"/>
<path d="M51.0757 30.7044L51.9499 34.3583L54.1893 30.7044L60.7703 32.5313L58.0298 27.7577L60.7703 23.6127L56.7137 23.2002" stroke="white" stroke-width="1.5" stroke-linecap="round" stroke-linejoin="round"/>
</g>
<defs>
<clipPath id="clip0_319_1704">
<rect width="61.507" height="42" fill="white"/>
</clipPath>
</defs>
</svg>
