<svg width="18" height="18" viewBox="0 0 18 18" fill="none" xmlns="http://www.w3.org/2000/svg">
<path d="M15.6354 11.1418L12.323 9.65753L12.3138 9.65331C12.1419 9.57976 11.9543 9.55024 11.768 9.56743C11.5818 9.58462 11.4028 9.64796 11.2472 9.75174C11.2289 9.76384 11.2113 9.77699 11.1945 9.79112L9.48305 11.2501C8.39883 10.7235 7.27946 9.61252 6.75282 8.54237L8.21391 6.80495C8.22798 6.78737 8.24133 6.76979 8.25399 6.75081C8.35554 6.59563 8.41716 6.41775 8.43335 6.23301C8.44954 6.04826 8.41981 5.86238 8.3468 5.6919V5.68346L6.85829 2.36541C6.76178 2.14271 6.59583 1.95719 6.38522 1.83655C6.1746 1.71591 5.93062 1.66662 5.68969 1.69604C4.73694 1.82141 3.8624 2.28931 3.22941 3.01236C2.59643 3.7354 2.24828 4.66413 2.25001 5.6251C2.25001 11.2079 6.79219 15.7501 12.375 15.7501C13.336 15.7518 14.2647 15.4037 14.9878 14.7707C15.7108 14.1377 16.1787 13.2632 16.3041 12.3104C16.3335 12.0696 16.2844 11.8256 16.1638 11.615C16.0433 11.4044 15.858 11.2384 15.6354 11.1418ZM12.375 14.6251C9.98886 14.6225 7.70119 13.6734 6.01392 11.9862C4.32666 10.2989 3.37761 8.01125 3.37501 5.6251C3.37236 4.93849 3.61973 4.2744 4.07091 3.75683C4.5221 3.23927 5.14625 2.90363 5.8268 2.8126C5.82653 2.81541 5.82653 2.81823 5.8268 2.82104L7.30337 6.12573L5.85001 7.86526C5.83525 7.88223 5.82185 7.90033 5.80993 7.9194C5.70412 8.08176 5.64205 8.26871 5.62973 8.46211C5.61741 8.65552 5.65526 8.84883 5.73962 9.02331C6.37665 10.3262 7.68938 11.6291 9.00633 12.2654C9.18209 12.349 9.37652 12.3855 9.57062 12.3715C9.76473 12.3574 9.95187 12.2933 10.1138 12.1853C10.1318 12.1731 10.1492 12.16 10.1658 12.1459L11.8751 10.6876L15.1798 12.1677H15.1875C15.0976 12.8492 14.7624 13.4746 14.2448 13.9269C13.7271 14.3792 13.0624 14.6274 12.375 14.6251Z" fill="white"/>
</svg>
