<svg width="43" height="43" viewBox="0 0 43 43" fill="none" xmlns="http://www.w3.org/2000/svg">
<path d="M10.6 0C4.74162 0 0 4.75078 0 10.6V31.8C0 37.6584 4.74162 42.4 10.6 42.4H31.8C37.6584 42.4 42.4 37.6584 42.4 31.8V0H10.6Z" fill="#92E12E"/>
<path d="M11.1359 16.9268C10.7853 15.4094 12.3075 14.0748 14.2818 14.0748C16.0624 14.0748 17.843 14.4679 18.5164 16.9268H20.7952V20.6745C17.9537 18.3527 11.8001 19.8062 11.1359 16.9268ZM34.7629 15.8847H29.6334L24.753 21.1773V10.6012H20.7952V13.1698C20.666 13.0053 20.5276 12.8408 20.38 12.6762C18.9408 11.168 16.865 10.4001 14.2173 10.4001C11.1543 10.4001 9.40145 11.7621 8.47887 12.9048C7.33489 14.3216 6.81825 16.2503 7.17805 17.8317C8.09139 21.9086 11.9201 22.5576 14.7247 22.9232C16.9388 23.2066 19.0608 23.6088 19.0054 25.5649C18.95 27.5942 16.6344 28.097 15.1214 28.097C11.1728 28.097 11.0436 25.2084 11.0436 25.2084H6.7998C6.86438 26.2962 7.19651 28.033 8.54346 29.5321C10.0196 31.1683 12.2337 32.0001 15.1306 32.0001C17.354 32.0001 19.3744 31.2871 20.8229 30.0074V31.7533H24.7807V26.7624L26.183 25.245L30.1869 31.7625H34.7998L28.9784 22.2194L34.7629 15.8847Z" fill="#4A5759"/>
</svg>
