<svg width="23" height="24" viewBox="0 0 23 24" fill="none" xmlns="http://www.w3.org/2000/svg">
<g filter="url(#filter0_d_301_1115)">
<path d="M11.5052 0.5C7.36439 0.5 4 3.86207 4 8C4 12.1379 7.36439 15.5 11.5052 15.5C15.646 15.5 19 12.1379 19 8C19 3.86207 15.646 0.5 11.5052 0.5ZM14.0828 10.3793C14.0828 10.8759 14.1605 11.3828 14.3209 11.8638C13.4824 11.2483 12.4886 10.9483 11.5052 10.9483C10.5217 10.9483 9.53313 11.2483 8.68944 11.8638C8.8499 11.3776 8.92754 10.881 8.92754 10.3897C8.92754 8.88966 8.21843 7.43621 6.95549 6.52069C7.99068 6.52069 8.97412 6.18448 9.77122 5.60517C10.5683 5.02586 11.1843 4.20345 11.5052 3.21552C12.1418 5.18621 13.9741 6.52586 16.0549 6.52586C14.7919 7.44138 14.0828 8.88448 14.0828 10.3845V10.3793Z" fill="#2C508C"/>
</g>
<defs>
<filter id="filter0_d_301_1115" x="0" y="0.5" width="23" height="23" filterUnits="userSpaceOnUse" color-interpolation-filters="sRGB">
<feFlood flood-opacity="0" result="BackgroundImageFix"/>
<feColorMatrix in="SourceAlpha" type="matrix" values="0 0 0 0 0 0 0 0 0 0 0 0 0 0 0 0 0 0 127 0" result="hardAlpha"/>
<feOffset dy="4"/>
<feGaussianBlur stdDeviation="2"/>
<feComposite in2="hardAlpha" operator="out"/>
<feColorMatrix type="matrix" values="0 0 0 0 0 0 0 0 0 0 0 0 0 0 0 0 0 0 0.25 0"/>
<feBlend mode="normal" in2="BackgroundImageFix" result="effect1_dropShadow_301_1115"/>
<feBlend mode="normal" in="SourceGraphic" in2="effect1_dropShadow_301_1115" result="shape"/>
</filter>
</defs>
</svg>
