<svg width="30" height="30" viewBox="0 0 30 30" fill="none" xmlns="http://www.w3.org/2000/svg">
<g clip-path="url(#clip0_317_1412)">
<path fill-rule="evenodd" clip-rule="evenodd" d="M15.5 15.9584C18.9942 15.9584 22.1719 16.9705 24.5096 18.3967C25.6762 19.1084 26.6737 19.9484 27.3942 20.8613C28.1029 21.7582 28.625 22.8315 28.625 23.9792C28.625 25.2115 28.0256 26.1828 27.1623 26.8755C26.3456 27.5317 25.2679 27.9663 24.1231 28.2697C21.8219 28.8778 18.7506 29.0834 15.5 29.0834C12.2494 29.0834 9.17812 28.8792 6.87687 28.2697C5.73208 27.9663 4.65437 27.5317 3.83771 26.8755C2.97292 26.1813 2.375 25.2115 2.375 23.9792C2.375 22.8315 2.89708 21.7582 3.60583 20.8599C4.32625 19.9484 5.32229 19.1099 6.49042 18.3953C8.82812 16.972 12.0073 15.9584 15.5 15.9584ZM15.5 18.8751C12.5498 18.8751 9.89562 19.7355 8.01 20.8861C7.06646 21.4607 6.35479 22.0849 5.89542 22.6682C5.42292 23.2661 5.29167 23.7182 5.29167 23.9792C5.29167 24.1572 5.34563 24.3453 5.66354 24.6005C6.02667 24.8922 6.65812 25.194 7.62354 25.4492C9.54562 25.9597 12.3077 26.1667 15.5 26.1667C18.6938 26.1667 21.4544 25.9582 23.375 25.4492C24.3419 25.194 24.9733 24.8922 25.3365 24.6005C25.6544 24.3453 25.7083 24.1572 25.7083 23.9792C25.7083 23.7167 25.5771 23.2661 25.106 22.6682C24.6452 22.0849 23.9335 21.4607 22.99 20.8861C21.1044 19.734 18.4502 18.8751 15.5 18.8751ZM15.5 -0.083252C17.4339 -0.083252 19.2885 0.684975 20.656 2.05243C22.0234 3.41988 22.7917 5.27454 22.7917 7.20841C22.7917 9.14228 22.0234 10.9969 20.656 12.3644C19.2885 13.7319 17.4339 14.5001 15.5 14.5001C13.5661 14.5001 11.7115 13.7319 10.344 12.3644C8.97656 10.9969 8.20833 9.14228 8.20833 7.20841C8.20833 5.27454 8.97656 3.41988 10.344 2.05243C11.7115 0.684975 13.5661 -0.083252 15.5 -0.083252ZM15.5 2.83341C14.9255 2.83341 14.3566 2.94658 13.8258 3.16644C13.295 3.38631 12.8127 3.70857 12.4064 4.11482C12.0001 4.52108 11.6779 5.00338 11.458 5.53417C11.2382 6.06497 11.125 6.63388 11.125 7.20841C11.125 7.78295 11.2382 8.35186 11.458 8.88265C11.6779 9.41345 12.0001 9.89575 12.4064 10.302C12.8127 10.7083 13.295 11.0305 13.8258 11.2504C14.3566 11.4703 14.9255 11.5834 15.5 11.5834C16.6603 11.5834 17.7731 11.1225 18.5936 10.302C19.4141 9.48154 19.875 8.36874 19.875 7.20841C19.875 6.04809 19.4141 4.93529 18.5936 4.11482C17.7731 3.29435 16.6603 2.83341 15.5 2.83341Z" fill="#F8F8F8"/>
</g>
<defs>
<clipPath id="clip0_317_1412">
<rect width="30" height="30" fill="white"/>
</clipPath>
</defs>
</svg>
