<svg width="36" height="36" viewBox="0 0 36 36" fill="none" xmlns="http://www.w3.org/2000/svg">
<path d="M5.1 5.1C3 7.22 3 10.61 3 17.4V18.6C3 25.38 3 28.77 5.1 30.9C7.22 33 10.61 33 17.4 33H18.6C25.38 33 28.77 33 30.9 30.9C33 28.78 33 25.39 33 18.6V17.4C33 10.62 33 7.23 30.9 5.1C28.78 3 25.39 3 18.6 3H17.4C10.62 3 7.23 3 5.1 5.1ZM8.06 12.13H11.5C11.61 17.85 14.13 20.27 16.13 20.77V12.13H19.36V17.06C21.33 16.85 23.41 14.6 24.11 12.12H27.33C27.0675 13.4038 26.5431 14.6197 25.7895 15.6916C25.0358 16.7636 24.0692 17.6685 22.95 18.35C24.1991 18.9714 25.3021 19.8507 26.1864 20.9298C27.0707 22.0089 27.7161 23.2632 28.08 24.61H24.53C23.77 22.24 21.87 20.4 19.36 20.15V24.61H18.96C12.12 24.61 8.22 19.93 8.06 12.13Z" fill="white"/>
</svg>
