<svg width="36" height="36" viewBox="0 0 36 36" fill="none" xmlns="http://www.w3.org/2000/svg">
<path d="M14.4 23.1429L23.742 18L14.4 12.8571V23.1429ZM35.208 9.72C35.442 10.5257 35.604 11.6057 35.712 12.9771C35.838 14.3486 35.892 15.5314 35.892 16.56L36 18C36 21.7543 35.712 24.5143 35.208 26.28C34.758 27.8229 33.714 28.8171 32.094 29.2457C31.248 29.4686 29.7 29.6229 27.324 29.7257C24.984 29.8457 22.842 29.8971 20.862 29.8971L18 30C10.458 30 5.76 29.7257 3.906 29.2457C2.286 28.8171 1.242 27.8229 0.792 26.28C0.558 25.4743 0.396 24.3943 0.288 23.0229C0.162 21.6514 0.108 20.4686 0.108 19.44L0 18C0 14.2457 0.288 11.4857 0.792 9.72C1.242 8.17714 2.286 7.18286 3.906 6.75429C4.752 6.53143 6.3 6.37714 8.676 6.27429C11.016 6.15429 13.158 6.10286 15.138 6.10286L18 6C25.542 6 30.24 6.27429 32.094 6.75429C33.714 7.18286 34.758 8.17714 35.208 9.72Z" fill="white"/>
</svg>
