<svg width="126" height="35" viewBox="0 0 126 35" fill="none" xmlns="http://www.w3.org/2000/svg">
<path d="M8.93213 -0.0032959C4.09621 -0.0032959 0.182129 3.91834 0.182129 8.74671V26.2467C0.182129 31.0826 4.09621 34.9967 8.93213 34.9967H26.4321C31.2681 34.9967 35.1821 31.0826 35.1821 26.2467V-0.0032959H8.93213Z" fill="#92E12E"/>
<path d="M9.62902 13.6175C9.33688 12.3881 10.6054 11.3069 12.2507 11.3069C13.7345 11.3069 15.2183 11.6253 15.7795 13.6175H17.6784V16.6539C15.3105 14.7728 10.1826 15.9503 9.62902 13.6175ZM29.3182 12.7732H25.0436L20.9766 17.0612V8.49264H17.6784V10.5737C17.5708 10.4404 17.4555 10.3071 17.3325 10.1738C16.1331 8.9518 14.4033 8.32971 12.1968 8.32971C9.6444 8.32971 8.18366 9.43318 7.41485 10.3589C6.46153 11.5068 6.03099 13.0694 6.33083 14.3507C7.09195 17.6537 10.2825 18.1795 12.6197 18.4757C14.4648 18.7053 16.2331 19.0311 16.187 20.616C16.1408 22.2601 14.2111 22.6674 12.9503 22.6674C9.65977 22.6674 9.55214 20.3272 9.55214 20.3272H6.01562C6.06944 21.2085 6.34621 22.6156 7.46867 23.8301C8.69877 25.1558 10.5439 25.8297 12.958 25.8297C14.8108 25.8297 16.4945 25.2521 17.7015 24.2152V25.6298H20.9997V21.5862L22.1683 20.3568L25.5049 25.6372H29.349L24.4978 17.9055L29.3182 12.7732Z" fill="#4A5759"/>
<path d="M49.6197 16.0894C49.5287 15.9275 49.3999 15.7729 49.271 15.6109C49.1269 15.471 48.9602 15.3311 48.7403 15.206C48.5432 15.0808 48.2855 14.9924 47.9974 14.9041C47.7094 14.8305 47.3758 14.7937 46.974 14.7937C46.8073 14.7937 46.6102 14.8157 46.3903 14.8452C46.1705 14.8967 45.9355 14.9704 45.7005 15.0734C45.4655 15.1986 45.2305 15.3532 44.9879 15.552C44.7681 15.7434 44.5482 16.0085 44.389 16.3324C44.1919 16.6711 44.0403 17.0613 43.9342 17.5177C43.8281 17.9742 43.7674 18.5264 43.7674 19.1669C43.7674 19.859 43.8432 20.4554 43.9873 21.0075C44.1313 21.5524 44.3511 22.0162 44.624 22.3843C44.8969 22.7598 45.2456 23.0396 45.6474 23.231C46.0264 23.4224 46.4813 23.5328 46.974 23.5328C47.5577 23.5328 48.0126 23.4445 48.3765 23.2825C48.7403 23.1058 49.0284 22.8923 49.2482 22.642C49.4681 22.3917 49.6273 22.1266 49.7183 21.8616C49.8244 21.5965 49.9153 21.3462 49.9684 21.1548H52.6823C52.5383 21.9499 52.3033 22.642 51.9546 23.2236C51.6058 23.8053 51.1889 24.2838 50.6962 24.674C50.2034 25.0642 49.6576 25.344 49.036 25.5428C48.4144 25.7342 47.7624 25.8299 47.065 25.8299C46.1023 25.8299 45.2229 25.6679 44.48 25.3514C43.7295 25.0495 43.0927 24.593 42.5848 24.0261C42.0769 23.4445 41.6903 22.7377 41.4174 21.9058C41.1445 21.0885 41.0156 20.1682 41.0156 19.1669C41.0156 18.3865 41.0914 17.6797 41.2506 17.0466C41.3947 16.4134 41.6145 15.8465 41.8874 15.3458C42.1603 14.8526 42.4863 14.4403 42.8729 14.0721C43.2368 13.7187 43.6385 13.4169 44.0934 13.1886C44.5331 12.9604 44.9879 12.7837 45.4806 12.6586C45.9734 12.5555 46.4661 12.4966 46.9589 12.4966C47.6715 12.4966 48.3082 12.5702 48.8541 12.7101C49.3999 12.8721 49.8926 13.0488 50.3096 13.2917C50.7265 13.542 51.0752 13.8071 51.3633 14.1237C51.6513 14.4403 51.9091 14.7642 52.091 15.0808C52.2729 15.4195 52.4018 15.7508 52.5079 16.0747C52.5989 16.4134 52.652 16.7079 52.6747 16.995H49.9457L49.8168 16.568C49.7789 16.406 49.7107 16.2661 49.6197 16.0894Z" fill="white"/>
<path d="M60.7071 16.6637H64.1765L60.032 20.4724L64.3491 25.8304H60.9504L58.0148 21.9571L56.9551 22.9398V25.8304H54.3491V16.6637H56.9551V20.1424L60.7071 16.6637Z" fill="white"/>
<path d="M66.2904 21.8666C66.3668 22.2209 66.4891 22.5382 66.6956 22.8039C66.879 23.0843 67.1161 23.3205 67.4142 23.4755C67.7047 23.6378 68.0717 23.7264 68.5151 23.7264C68.9739 23.7264 69.3638 23.6378 69.6543 23.4755C69.9448 23.3131 70.1894 23.0843 70.3729 22.8186C70.5564 22.553 70.6864 22.2504 70.7552 21.8961C70.8316 21.5419 70.8622 21.1876 70.8622 20.8113C70.8622 20.4423 70.824 20.0806 70.7552 19.7264C70.6787 19.3721 70.5564 19.0548 70.3729 18.7891C70.1894 18.5234 69.9524 18.3094 69.6543 18.1323C69.3638 17.9699 68.9739 17.9035 68.5151 17.9035C68.0717 17.9035 67.7047 17.9921 67.4142 18.1544C67.1237 18.3168 66.879 18.5456 66.6956 18.8113C66.4968 19.0991 66.3668 19.3943 66.2904 19.7485C66.2139 20.1028 66.1604 20.457 66.1604 20.8113C66.1604 21.1655 66.2216 21.5271 66.2904 21.8666ZM63.8668 18.8186C64.0885 18.1987 64.4173 17.6674 64.8607 17.2245C65.3041 16.7817 65.8164 16.4423 66.4433 16.1987C67.0702 15.9478 67.7506 15.8297 68.5228 15.8297C69.3103 15.8297 70.0136 15.9552 70.6329 16.1987C71.2598 16.4496 71.772 16.7817 72.1925 17.2245C72.613 17.6674 72.9494 18.1987 73.1864 18.8186C73.4081 19.4238 73.5151 20.0954 73.5151 20.826C73.5151 21.5567 73.4081 22.2282 73.1864 22.8334C72.9494 23.4533 72.6206 23.9847 72.1925 24.4275C71.772 24.8555 71.2521 25.2098 70.6329 25.4533C70.006 25.7042 69.3103 25.8297 68.5228 25.8297C67.7506 25.8297 67.0702 25.7042 66.4433 25.4533C65.8164 25.2024 65.3041 24.8482 64.8607 24.4275C64.4173 23.9847 64.0885 23.4533 63.8668 22.8334C63.6451 22.2282 63.5151 21.5567 63.5151 20.826C63.5151 20.0954 63.6451 19.4164 63.8668 18.8186Z" fill="white"/>
<path d="M77.9876 18.543L77.9494 20.1995C77.9112 21.1391 77.8424 21.9535 77.7506 22.6565C77.6436 23.3595 77.4754 23.9441 77.2537 24.4105C77.0167 24.8768 76.7032 25.2318 76.3133 25.4824C75.931 25.719 75.4112 25.8304 74.8072 25.8304C74.509 25.8304 74.272 25.8095 74.0503 25.7956C73.8286 25.7608 73.668 25.712 73.5151 25.6633V23.7214C73.6069 23.7562 73.7216 23.791 73.8439 23.8188C73.9739 23.8328 74.1191 23.8536 74.3026 23.8536C74.509 23.8536 74.6696 23.8049 74.8148 23.6866C74.9601 23.5892 75.0901 23.4012 75.2048 23.1159C75.3194 22.8305 75.3882 22.4477 75.4647 21.9465C75.5182 21.4454 75.5564 20.812 75.5794 20.0255L75.6558 16.6637H83.5151V25.5589H80.9998V18.543H77.9876Z" fill="white"/>
<path d="M91.0097 16.6637H94.19L90.391 20.4724L94.3483 25.8304H91.2328L88.5418 21.9571L87.5704 22.9398V25.8304H85.1816V16.6637H87.5704V20.1424L91.0097 16.6637Z" fill="white"/>
<path d="M97.1239 21.8666C97.2003 22.2209 97.3226 22.5382 97.5291 22.8039C97.7125 23.0843 97.9496 23.3205 98.2477 23.4755C98.5382 23.6378 98.9052 23.7264 99.3486 23.7264C99.8073 23.7264 100.197 23.6378 100.488 23.4755C100.778 23.3131 101.023 23.0843 101.206 22.8186C101.39 22.553 101.52 22.2504 101.589 21.8961C101.665 21.5419 101.696 21.1876 101.696 20.8113C101.696 20.4423 101.657 20.0806 101.589 19.7264C101.512 19.3721 101.39 19.0548 101.206 18.7891C101.023 18.5234 100.786 18.3094 100.488 18.1323C100.197 17.9699 99.8073 17.9035 99.3486 17.9035C98.9052 17.9035 98.5382 17.9921 98.2477 18.1544C97.9572 18.3168 97.7125 18.5456 97.5291 18.8113C97.3303 19.0991 97.2003 19.3943 97.1239 19.7485C97.0474 20.1028 96.9939 20.457 96.9939 20.8113C96.9939 21.1655 97.0474 21.5271 97.1239 21.8666ZM94.7003 18.8186C94.922 18.1987 95.2508 17.6674 95.6942 17.2245C96.1376 16.7817 96.6499 16.4423 97.2768 16.1987C97.9037 15.9478 98.5841 15.8297 99.3563 15.8297C100.144 15.8297 100.847 15.9552 101.466 16.1987C102.093 16.4496 102.606 16.7817 103.026 17.2245C103.446 17.6674 103.783 18.1987 104.02 18.8186C104.242 19.4238 104.349 20.0954 104.349 20.826C104.349 21.5567 104.242 22.2282 104.02 22.8334C103.783 23.4533 103.454 23.9847 103.026 24.4275C102.606 24.8555 102.086 25.2098 101.466 25.4533C100.839 25.7042 100.144 25.8297 99.3563 25.8297C98.5841 25.8297 97.9037 25.7042 97.2768 25.4533C96.6499 25.2024 96.1376 24.8482 95.6942 24.4275C95.2508 23.9847 94.922 23.4533 94.7003 22.8334C94.4786 22.2282 94.3486 21.5567 94.3486 20.826C94.3486 20.0954 94.4786 19.4164 94.7003 18.8186Z" fill="white"/>
<path d="M111.098 24.0314C111.307 23.9454 111.458 23.8594 111.581 23.7376C111.682 23.6372 111.768 23.5154 111.804 23.3792C111.84 23.2431 111.855 23.1212 111.855 22.9994C111.855 22.7772 111.84 22.5837 111.768 22.4332C111.718 22.297 111.631 22.1752 111.494 22.0892C111.372 21.9817 111.199 21.9315 110.99 21.9028C110.781 21.867 110.543 21.8526 110.247 21.8526H108.409V24.1389H110.247C110.593 24.1389 110.889 24.1031 111.098 24.0314ZM110.939 20.1899C111.112 20.1397 111.249 20.0895 111.357 20.0035C111.458 19.9319 111.552 19.8315 111.581 19.7097C111.631 19.5879 111.653 19.4373 111.653 19.2797C111.653 19.1435 111.638 19.0217 111.581 18.8998C111.545 18.7995 111.458 18.692 111.357 18.606C111.271 18.5343 111.134 18.4698 110.961 18.4196C110.788 18.3695 110.579 18.348 110.319 18.348H108.416V20.2616H110.254C110.521 20.2616 110.752 20.2257 110.939 20.1899ZM112.013 16.764C112.395 16.85 112.741 16.9719 113.051 17.1439C113.347 17.3302 113.592 17.5739 113.765 17.8821C113.938 18.1903 114.025 18.5845 114.025 19.0718C114.025 19.3442 114.01 19.5879 113.938 19.7814C113.888 19.9892 113.801 20.1612 113.693 20.2974C113.592 20.4551 113.469 20.5769 113.347 20.6629C113.21 20.7633 113.087 20.8493 112.929 20.9209C113.397 21.0786 113.743 21.3366 113.981 21.695C114.219 22.0533 114.349 22.469 114.349 22.9707C114.349 23.4007 114.277 23.7949 114.14 24.1389C113.981 24.483 113.779 24.7911 113.498 25.0348C113.224 25.2928 112.893 25.4792 112.496 25.6225C112.1 25.7587 111.667 25.8304 111.177 25.8304H106.016V16.6637H110.781C111.213 16.6637 111.617 16.6995 112.013 16.764Z" fill="white"/>
<path d="M117.959 21.8666C118.036 22.2209 118.158 22.5382 118.365 22.8039C118.549 23.0843 118.786 23.3205 119.084 23.4755C119.375 23.6378 119.742 23.7264 120.186 23.7264C120.645 23.7264 121.035 23.6378 121.326 23.4755C121.617 23.3131 121.862 23.0843 122.045 22.8186C122.229 22.553 122.359 22.2504 122.435 21.8961C122.512 21.5419 122.542 21.1876 122.542 20.8113C122.542 20.4423 122.504 20.0806 122.435 19.7264C122.359 19.3721 122.236 19.0548 122.045 18.7891C121.862 18.5234 121.624 18.3094 121.326 18.1323C121.035 17.9699 120.645 17.9035 120.186 17.9035C119.742 17.9035 119.375 17.9921 119.084 18.1544C118.786 18.3168 118.549 18.5456 118.365 18.8113C118.166 19.0991 118.036 19.3943 117.959 19.7485C117.883 20.1028 117.829 20.457 117.829 20.8113C117.829 21.1655 117.883 21.5271 117.959 21.8666ZM115.534 18.8186C115.756 18.1987 116.085 17.6674 116.529 17.2245C116.972 16.7817 117.485 16.4423 118.113 16.1987C118.74 15.9478 119.421 15.8297 120.186 15.8297C120.974 15.8297 121.678 15.9552 122.298 16.1987C122.925 16.4496 123.438 16.7817 123.858 17.2245C124.279 17.6674 124.616 18.1987 124.853 18.8186C125.075 19.4238 125.182 20.0954 125.182 20.826C125.182 21.5567 125.075 22.2282 124.853 22.8334C124.616 23.4533 124.279 23.9847 123.858 24.4275C123.438 24.8555 122.917 25.2098 122.298 25.4533C121.67 25.7042 120.974 25.8297 120.186 25.8297C119.413 25.8297 118.732 25.7042 118.113 25.4533C117.485 25.2024 116.972 24.8482 116.529 24.4275C116.085 23.9847 115.756 23.4533 115.534 22.8334C115.312 22.2282 115.182 21.5567 115.182 20.826C115.182 20.0954 115.312 19.4164 115.534 18.8186Z" fill="white"/>
</svg>
