<svg width="181" height="214" viewBox="0 0 181 214" fill="none" xmlns="http://www.w3.org/2000/svg">
<g clip-path="url(#clip0_3106_317)">
<circle cx="90.9305" cy="123.482" r="89.77" stroke="white"/>
<circle cx="90.9305" cy="123.482" r="89.77" stroke="white"/>
<circle cx="90.9305" cy="123.482" r="89.77" stroke="white"/>
<path d="M68.8633 85.2599L135.066 123.482L68.8633 161.704L68.8633 85.2599Z" stroke="white"/>
<path d="M32.5773 23.0601C33.0942 24.0986 33.7785 24.9197 34.6301 25.5235C35.4936 26.1213 36.4322 26.4658 37.4457 26.5571C38.4652 26.6305 39.4763 26.4176 40.4789 25.9185C41.4816 25.4194 42.255 24.744 42.7991 23.8923C43.3492 23.0227 43.6401 22.0662 43.6718 21.0227C43.7035 19.9793 43.4609 18.9383 42.9439 17.8999C42.4211 16.8495 41.7368 16.0284 40.8911 15.4365C40.0395 14.8328 39.104 14.4942 38.0844 14.4208C37.0709 14.3296 36.0628 14.5335 35.0602 15.0326C34.0575 15.5317 33.2811 16.216 32.731 17.0856C32.1869 17.9374 31.893 18.8879 31.8494 19.9373C31.8118 20.9688 32.0544 22.0098 32.5773 23.0601ZM31.5388 23.5771C31.0813 22.658 30.8146 21.7333 30.7388 20.8029C30.657 19.8606 30.754 18.9634 31.0298 18.1112C31.2996 17.2471 31.7304 16.4667 32.3219 15.7701C32.9254 15.0676 33.6748 14.4935 34.57 14.0479C35.4652 13.6022 36.369 13.3534 37.2814 13.3014C38.2058 13.2434 39.094 13.3672 39.9462 13.6728C40.7924 13.9665 41.5667 14.43 42.2692 15.0633C42.9658 15.6847 43.5428 16.4549 44.0003 17.374C44.4578 18.2931 44.7275 19.2238 44.8093 20.1661C44.8851 21.0964 44.7881 21.9937 44.5182 22.8578C44.2424 23.71 43.8028 24.4874 43.1993 25.1899C42.6077 25.8865 41.8643 26.4576 40.9691 26.9032C40.0739 27.3489 39.1641 27.6007 38.2398 27.6586C37.3273 27.7107 36.448 27.5899 35.6018 27.2962C34.7497 26.9906 33.9753 26.5271 33.2788 25.9057C32.5763 25.2724 31.9963 24.4962 31.5388 23.5771Z" fill="white"/>
<path d="M48.9717 8.10563L50.0198 7.77174L54.2693 21.1112L53.2212 21.4451L48.9717 8.10563ZM55.5461 6.01123L56.8801 5.58628L53.0019 13.7066L61.4154 18.8347L60.0815 19.2596L51.7121 14.1384L55.5461 6.01123Z" fill="white"/>
<path d="M61.8511 11.4626C62.0798 12.5998 62.5267 13.5707 63.1917 14.3754C63.8698 15.1774 64.6863 15.7545 65.6411 16.1064C66.6064 16.4427 67.638 16.5004 68.736 16.2796C69.834 16.0588 70.7566 15.608 71.5037 14.9274C72.2613 14.231 72.7912 13.3832 73.0934 12.384C73.3957 11.3848 73.4324 10.3165 73.2037 9.17931C72.9724 8.02901 72.5255 7.05806 71.8631 6.26647C71.198 5.4618 70.3829 4.89133 69.4176 4.55505C68.4628 4.20307 67.4364 4.13749 66.3384 4.35832C65.2404 4.57916 64.3126 5.03776 63.555 5.73414C62.8079 6.41481 62.2767 7.25607 61.9613 8.25791C61.6565 9.24405 61.6197 10.3123 61.8511 11.4626ZM60.7138 11.6913C60.5114 10.6848 60.4947 9.72252 60.6636 8.80451C60.83 7.87343 61.1573 7.03239 61.6454 6.2814C62.131 5.51733 62.75 4.87601 63.5025 4.35746C64.2681 3.83627 65.1411 3.47709 66.1215 3.27992C67.1019 3.08275 68.0393 3.07781 68.9338 3.26512C69.8414 3.4498 70.6667 3.80061 71.4099 4.31756C72.1505 4.82144 72.7774 5.47056 73.2908 6.26493C73.8015 7.04623 74.1581 7.94014 74.3606 8.94665C74.563 9.95316 74.581 10.922 74.4147 11.853C74.2457 12.771 73.9184 13.6121 73.4329 14.3761C72.9447 15.1271 72.3178 15.7632 71.5522 16.2844C70.7997 16.803 69.9333 17.1608 68.9529 17.358C67.9725 17.5552 67.0286 17.5614 66.121 17.3768C65.2265 17.1894 64.409 16.8439 63.6684 16.34C62.9252 15.823 62.2983 15.1739 61.7875 14.3926C61.2742 13.5982 60.9163 12.6978 60.7138 11.6913Z" fill="white"/>
<path d="M77.7825 4.5633L77.3752 15.7007L76.278 15.779L76.8577 1.16056L83.2103 11.4941L88.0292 0.362366L90.6813 14.7499L89.5841 14.8283L87.5975 3.86203L83.3642 13.6486L77.7825 4.5633Z" fill="white"/>
<path d="M101.506 2.42841L93.2151 2.04068L92.6097 14.9865L91.5109 14.9351L92.1649 0.950429L102.653 1.44093L101.999 15.4256L100.901 15.3743L101.506 2.42841Z" fill="white"/>
<path d="M105.341 11.1739L105.855 10.2007L112.239 11.1834L112.437 12.2661L105.341 11.1739ZM109.97 4.50035L106.274 10.6296L106.119 10.8485L103.262 15.6093L102.036 15.4206L110.356 1.98991L114.252 17.3008L113.027 17.1122L111.741 11.7946L111.681 11.5225L109.97 4.50035Z" fill="white"/>
<path d="M117.654 10.872L117.924 9.86745L127.042 12.3107L126.773 13.3153L117.654 10.872ZM127.844 6.45885L128.926 6.74872L125.302 20.2717L124.22 19.9818L127.844 6.45885ZM118.88 4.05701L119.943 4.34171L116.319 17.8647L115.257 17.58L118.88 4.05701Z" fill="white"/>
<path d="M143.075 13.1593L127.193 21.6366L127.87 20.0764L143.753 11.5991L143.075 13.1593ZM133.594 8.35809L128.765 20.643L127.193 21.6366L132.57 7.95567L133.594 8.35809ZM143.753 11.5991L138.375 25.2801L137.351 24.8777L142.188 12.5741L143.753 11.5991Z" fill="white"/>
<path d="M156.513 20.2569L139.726 26.7603L140.586 25.293L157.374 18.7896L156.513 20.2569ZM147.679 14.3491L141.406 25.9632L139.726 26.7603L146.712 13.8263L147.679 14.3491ZM157.374 18.7896L150.388 31.7236L149.42 31.2008L155.703 19.569L157.374 18.7896Z" fill="white"/>
</g>
<defs>
<clipPath id="clip0_3106_317">
<rect width="181" height="214" fill="white"/>
</clipPath>
</defs>
</svg>
