<svg width="34" height="47" viewBox="0 0 34 47" fill="none" xmlns="http://www.w3.org/2000/svg">
<path d="M34 39.458H0V46.458H34V39.458Z" fill="#091823"/>
<path d="M6.78063 0.458008H33.5311C33.937 0.458008 34.1568 0.935313 33.8693 1.23157L28.2723 7.05801H7.89664C7.28791 7.05801 6.78063 7.53531 6.78063 8.14429V25.7717C6.78063 26.3642 7.271 26.858 7.89664 26.858H26.0065C26.6152 26.858 27.1225 26.3807 27.1225 25.7717V21.3443C27.1225 20.7518 26.6321 20.258 26.0065 20.258H19.8008L14.4744 14.6126C14.1193 14.2505 14.3898 13.658 14.914 13.658H27.1225C30.8595 13.658 33.9031 16.6206 33.9031 20.258V26.858C33.9031 30.4954 30.8595 33.458 27.1225 33.458H6.78063C3.04367 33.458 0 30.4954 0 26.858V7.05801C0 3.4206 3.04367 0.458008 6.78063 0.458008Z" fill="#091823"/>
</svg>
