<svg width="130" height="28" viewBox="0 0 130 28" fill="none" xmlns="http://www.w3.org/2000/svg">
<path d="M6.74351 25.9673H0.947754V2.03271H6.23069V17.4173H6.5711L16.1157 2.03271H21.9115V25.9629H16.6286V10.5782H16.2882L6.74351 25.9629V25.9673Z" fill="white"/>
<path d="M37.0797 2.03271C38.238 2.03271 39.2901 2.20955 40.2318 2.56322C41.1734 2.91689 41.9824 3.3855 42.65 3.96463C43.322 4.54377 43.8392 5.20248 44.2017 5.93192C44.5642 6.66136 44.7455 7.41291 44.7455 8.18656C44.7455 9.00884 44.5907 9.68081 44.2857 10.2025C43.9807 10.7286 43.6447 11.1485 43.2822 11.4668C42.871 11.8294 42.398 12.1034 41.8498 12.2891V12.6295C42.8931 12.8329 43.8259 13.1998 44.6438 13.7215C44.9842 13.9514 45.3246 14.2166 45.665 14.5261C46.0054 14.8355 46.3105 15.1936 46.5846 15.6048C46.8586 16.0159 47.0709 16.4845 47.23 17.0062C47.3892 17.5323 47.4687 18.1247 47.4687 18.7834C47.4687 19.7648 47.2698 20.6932 46.8719 21.5685C46.474 22.4483 45.9037 23.2087 45.1699 23.8585C44.4316 24.5084 43.5209 25.0212 42.4422 25.397C41.3635 25.7728 40.1434 25.9629 38.7773 25.9629H25.9966V2.03271H37.0753H37.0797ZM31.2839 6.82051V10.9231H37.0797C37.7605 10.9231 38.2999 10.7286 38.6977 10.3439C39.0956 9.95491 39.2945 9.46861 39.2945 8.87179C39.2945 8.27498 39.0956 7.78868 38.6977 7.39965C38.2999 7.01061 37.7605 6.82051 37.0797 6.82051H31.2839ZM38.7817 21.1795C39.8029 21.1795 40.5987 20.9187 41.169 20.3926C41.7349 19.8665 42.0222 19.221 42.0222 18.443C42.0222 17.6649 41.7393 17.0195 41.169 16.4934C40.5987 15.9673 39.8074 15.7065 38.7817 15.7065H31.2839V21.1751H38.7817V21.1795Z" fill="white"/>
<path d="M61.4471 24.9414C59.608 24.8972 57.9369 24.5701 56.4383 23.9688C54.9396 23.3632 53.6487 22.5674 52.57 21.5771C51.4913 20.5869 50.6558 19.4419 50.0634 18.1421C49.471 16.8424 49.1792 15.4631 49.1792 14.0042C49.1792 12.5453 49.4754 11.166 50.0634 9.86627C50.6558 8.56654 51.4869 7.42154 52.57 6.43126C53.6487 5.44099 54.9396 4.64081 56.4383 4.03957C57.9369 3.43391 59.608 3.11119 61.4471 3.06698V0.675293H66.73V3.06698C68.5691 3.11119 70.2402 3.43833 71.7389 4.03957C73.2376 4.64523 74.5284 5.44099 75.6071 6.43126C76.6858 7.42154 77.5214 8.56654 78.1138 9.86627C78.7062 11.166 78.9979 12.5453 78.9979 14.0042C78.9979 15.4631 78.7017 16.8424 78.1138 18.1421C77.5214 19.4419 76.6858 20.5869 75.6071 21.5771C74.5284 22.5674 73.2376 23.3676 71.7389 23.9688C70.2402 24.5745 68.5691 24.8972 66.73 24.9414V27.3331H61.4471V24.9414ZM61.4471 7.81499C60.3773 7.8592 59.4135 8.05814 58.5514 8.41181C57.6894 8.76548 56.9555 9.22083 56.3543 9.77786C55.753 10.3349 55.2844 10.9759 54.9573 11.6921C54.6257 12.4083 54.4621 13.1775 54.4621 13.9998C54.4621 14.8221 54.6257 15.5913 54.9573 16.3075C55.2844 17.0237 55.753 17.6647 56.3543 18.2217C56.9555 18.7787 57.6894 19.2297 58.5514 19.5701C59.4135 19.9105 60.3817 20.105 61.4471 20.1492V7.80615V7.81499ZM66.73 20.1581C67.7999 20.1138 68.7636 19.9193 69.6257 19.5789C70.4878 19.2385 71.2216 18.7876 71.8229 18.2306C72.4241 17.6735 72.8927 17.0325 73.2199 16.3163C73.547 15.6001 73.715 14.8309 73.715 14.0086C73.715 13.1863 73.5514 12.4171 73.2199 11.7009C72.8883 10.9848 72.4241 10.3437 71.8229 9.7867C71.2216 9.22967 70.4878 8.77432 69.6257 8.42065C68.7636 8.06698 67.7955 7.86804 66.73 7.82383V20.1669V20.1581Z" fill="white"/>
<path d="M107.327 7.35092C107.76 8.34119 107.972 9.41988 107.972 10.5826C107.972 11.7453 107.756 12.8239 107.327 13.8142C106.894 14.8045 106.292 15.671 105.519 16.4137C104.745 17.1564 103.817 17.7355 102.725 18.1555C101.633 18.5755 100.43 18.7877 99.113 18.7877H91.2748V25.9672H89.5728V2.37744H99.1174C100.435 2.37744 101.642 2.58964 102.729 3.00962C103.821 3.42961 104.75 4.01316 105.523 4.75145C106.297 5.49415 106.898 6.36064 107.331 7.35092H107.327ZM105.758 13.213C106.098 12.3907 106.27 11.5154 106.27 10.5826C106.27 9.64977 106.098 8.77443 105.758 7.96542C105.417 7.1564 104.926 6.44906 104.29 5.84782C103.653 5.24216 102.897 4.76913 102.022 4.42872C101.147 4.08832 100.174 3.9159 99.1086 3.9159H91.2704V17.2492H99.1086C100.178 17.2492 101.147 17.0768 102.022 16.7364C102.897 16.396 103.653 15.9274 104.29 15.335C104.926 14.7426 105.413 14.0353 105.758 13.2174V13.213Z" fill="white"/>
<path d="M110.36 3.9159V2.37744H129.104V3.9159H120.585V25.9672H118.883V3.9159H110.364H110.36Z" fill="white"/>
</svg>
