<svg width="178" height="35" viewBox="0 0 178 35" fill="none" xmlns="http://www.w3.org/2000/svg">
<path d="M139.584 17.8538H137.309C136.993 17.8538 136.746 17.5731 136.746 17.268V6.063C136.746 5.73344 136.57 5.64801 136.359 5.91653C133.193 9.73696 130.016 13.594 126.826 17.39C126.627 17.6463 126.193 17.8538 125.9 17.8538H123.602C123.285 17.8538 123.039 17.5731 123.039 17.268V0.582583C123.039 0.277438 123.285 -0.0032959 123.602 -0.0032959H125.9C126.193 -0.0032959 126.463 0.277438 126.463 0.582583V11.7997C126.463 11.873 126.51 11.9828 126.58 12.0072C126.674 12.0317 126.756 12.0072 126.826 11.934L136.359 0.460525C136.606 0.179791 136.946 -0.0032959 137.321 -0.0032959H139.596C139.912 -0.0032959 140.182 0.277438 140.182 0.582583C140.158 6.14844 140.182 11.7021 140.182 17.268C140.17 17.5731 139.901 17.8538 139.584 17.8538Z" fill="white"/>
<path d="M161.61 3.56324C161.61 1.59676 163.185 -0.0032959 165.106 -0.0032959H176.752C177.074 -0.0032959 177.325 0.253201 177.325 0.582984V2.97696C177.325 3.30675 177.074 3.56324 176.752 3.56324H165.679C165.357 3.56324 165.106 3.81974 165.106 4.14952V13.701C165.106 14.0308 165.357 14.2873 165.679 14.2873H176.752C177.074 14.2873 177.325 14.5438 177.325 14.8736V17.2676C177.325 17.5973 177.074 17.8538 176.752 17.8538H165.106C163.185 17.8538 161.61 16.2416 161.61 14.2751V3.56324Z" fill="white"/>
<path d="M146.025 -0.0032959H143.624C143.295 -0.0032959 143.039 0.253026 143.039 0.582583V17.268C143.039 17.5975 143.295 17.8538 143.624 17.8538H146.025C146.355 17.8538 146.61 17.5975 146.61 17.268V0.582583C146.61 0.24082 146.355 -0.0032959 146.025 -0.0032959Z" fill="white"/>
<path d="M44.6941 26.9717V32.5324H45.8837V25.722L44.6941 26.9717ZM39.4678 26.0431V32.8534L40.6573 31.6266V26.0316H39.4678V26.0431ZM40.6573 30.354L39.5311 31.3515L39.4804 32.8534L44.7068 28.2215L45.8457 27.2125L45.8963 25.7106L40.6573 30.354Z" fill="white"/>
<path d="M50.4197 32.8538H51.6108V28.5681H50.4197V32.8538ZM47.1233 30.999H51.0707V30.1695H47.1233V30.999ZM46.6108 32.8538H47.7881V28.5681H46.6108V32.8538Z" fill="white"/>
<path d="M53.9509 32.8538H54.9965V28.7524H53.9509V32.8538ZM53.0391 29.4437H55.8962V28.5681H53.0391V29.4437Z" fill="white"/>
<path d="M59.9034 29.004C59.7056 28.6422 59.4154 28.358 59.0461 28.1513C58.69 27.9575 58.2548 27.8541 57.7404 27.8541C57.2787 27.8541 56.8699 27.9316 56.5138 28.0996C56.1577 28.2676 55.8807 28.5001 55.6565 28.7973C55.4454 29.1074 55.3003 29.4433 55.2212 29.8438C55.208 29.9213 55.1948 29.9988 55.1948 30.0893C55.1816 30.1668 55.1816 30.2572 55.1816 30.3477C55.1816 30.8257 55.2872 31.265 55.485 31.6397C55.696 32.0143 55.9862 32.3115 56.3687 32.5311C56.7512 32.7508 57.1864 32.8541 57.6876 32.8541C58.1361 32.8541 58.5185 32.8024 58.8087 32.6862C59.1121 32.5828 59.3627 32.4278 59.5737 32.234C59.7847 32.0402 59.9694 31.8205 60.1276 31.5621L59.1384 31.1616C59.0461 31.3167 58.9274 31.4459 58.8087 31.5621C58.6768 31.6784 58.5185 31.7689 58.3339 31.8335C58.1624 31.8981 57.9646 31.9368 57.7404 31.9368C57.4634 31.9368 57.2128 31.8722 57.0018 31.7689C56.7907 31.6526 56.6325 31.4717 56.5138 31.2391C56.4214 31.0583 56.3819 30.8645 56.3555 30.619H60.1672C60.1804 30.5544 60.1804 30.4898 60.1804 30.4381V30.296C60.1936 29.805 60.1013 29.3658 59.9034 29.004ZM56.3819 29.8567C56.4082 29.6758 56.461 29.5079 56.5533 29.3399C56.672 29.1332 56.8303 28.9782 57.0413 28.8748C57.2524 28.7585 57.4766 28.7068 57.7404 28.7068C57.991 28.7068 58.1888 28.7585 58.3603 28.849C58.5317 28.9523 58.6636 29.0815 58.756 29.2495C58.8483 29.4174 58.9142 29.6242 58.9406 29.8567H56.3819Z" fill="white"/>
<path d="M60.8965 28.5681V32.8538H62.0635V29.4437H63.7536V28.5681H60.8965Z" fill="white"/>
<path d="M69.1521 29.0021C68.9375 28.6322 68.6597 28.3388 68.3062 28.1475C67.9652 27.9562 67.5865 27.8541 67.1824 27.8541C66.7784 27.8541 66.4248 27.9562 66.1344 28.1603C65.9072 28.3133 65.7304 28.5174 65.5789 28.7725C65.5284 28.849 65.4779 28.9256 65.4526 29.0148C65.3011 29.3847 65.2127 29.8312 65.2127 30.3414C65.2127 30.8516 65.3011 31.298 65.4526 31.6679C65.4905 31.7572 65.5284 31.8337 65.5789 31.9102C65.7304 32.1653 65.9072 32.3694 66.1344 32.5225C66.4248 32.7266 66.7784 32.8286 67.1824 32.8286C67.5865 32.8286 67.9652 32.7266 68.3062 32.5352C68.6597 32.3439 68.9375 32.0633 69.1521 31.6807C69.3668 31.3108 69.4678 30.8643 69.4678 30.3286C69.4551 29.8184 69.3541 29.372 69.1521 29.0021ZM68.1294 31.1577C68.0031 31.3745 67.8264 31.5403 67.6117 31.6551C67.3971 31.7699 67.1572 31.8337 66.9046 31.8337C66.7026 31.8337 66.488 31.7699 66.286 31.6551C66.0839 31.5403 65.9072 31.3745 65.7809 31.1577C65.642 30.9409 65.5789 30.6602 65.5789 30.3414C65.5789 30.0097 65.642 29.7419 65.7809 29.525C65.9072 29.3082 66.0713 29.1424 66.286 29.0276C66.5006 28.9128 66.7026 28.8618 66.9046 28.8618C67.1698 28.8618 67.3971 28.9128 67.6117 29.0276C67.8264 29.1424 67.9905 29.3082 68.1294 29.5378C68.2557 29.7546 68.3188 30.0225 68.3188 30.3414C68.3188 30.6602 68.2557 30.9281 68.1294 31.1577ZM64.4678 34.997H65.5789V27.9817H64.4678V34.997Z" fill="white"/>
<path d="M73.3774 29.008V32.5278H74.4678V27.8541L73.3774 29.008ZM70.1821 28.1921V32.8541L71.2726 31.7119V28.1921H70.1821ZM71.2726 30.663L70.2328 31.5721L70.1821 32.8425L73.3774 30.0336L74.4171 29.1245L74.4678 27.8541L71.2726 30.663Z" fill="white"/>
<path d="M80.5816 29.0021C80.3675 28.6322 80.0904 28.3388 79.7378 28.1475C79.3851 27.9562 79.0199 27.8541 78.6043 27.8541C78.2013 27.8541 77.8612 27.9562 77.5715 28.1603C77.3574 28.3133 77.1685 28.5174 77.0174 28.7597C76.967 28.849 76.9166 28.9256 76.8914 29.0276C76.7403 29.3975 76.6522 29.8439 76.6522 30.3541C76.6522 30.8643 76.7403 31.3108 76.8914 31.6807C76.9292 31.7827 76.9796 31.8592 77.0174 31.9485C77.1685 32.1909 77.3574 32.3949 77.5715 32.548C77.8612 32.7521 78.2139 32.8541 78.6043 32.8541C79.0199 32.8541 79.3851 32.7521 79.7378 32.5608C80.0778 32.3694 80.3549 32.0888 80.5816 31.7062C80.7831 31.3363 80.8965 30.8898 80.8965 30.3541C80.8965 29.8184 80.7957 29.372 80.5816 29.0021ZM79.5615 31.1577C79.4355 31.3745 79.2592 31.5403 79.0451 31.6551C78.8436 31.7699 78.6043 31.8337 78.3398 31.8337C78.1257 31.8337 77.9242 31.7699 77.7227 31.6551C77.5086 31.5403 77.3448 31.3745 77.2189 31.1577C77.0804 30.9409 77.0174 30.6602 77.0174 30.3414C77.0174 30.0097 77.0804 29.7419 77.2189 29.525C77.3448 29.3082 77.5086 29.1424 77.7227 29.0276C77.9242 28.9128 78.1257 28.8618 78.3398 28.8618C78.6043 28.8618 78.831 28.9128 79.0451 29.0276C79.2592 29.1424 79.4355 29.3082 79.5615 29.5378C79.6874 29.7546 79.7504 30.0225 79.7504 30.3414C79.7504 30.6602 79.6874 30.9281 79.5615 31.1577ZM75.8965 34.997H77.0174V27.9817H75.8965V34.997Z" fill="white"/>
<path d="M84.8929 29.0495C84.7 28.6767 84.4429 28.394 84.1322 28.1755C83.8108 27.957 83.4465 27.8541 83.0393 27.8541C82.6322 27.8541 82.2572 27.957 81.9358 28.1755C81.6143 28.3811 81.3572 28.6767 81.1751 29.0495C80.9929 29.4222 80.8965 29.8593 80.8965 30.3477C80.8965 30.8361 80.9929 31.2603 81.1751 31.6459C81.3679 32.0186 81.6251 32.3143 81.9358 32.5328C82.2572 32.7384 82.6322 32.8541 83.0393 32.8541C83.4465 32.8541 83.8108 32.7513 84.1322 32.5328C84.4429 32.3143 84.7108 32.0186 84.8929 31.6459C85.0858 31.2731 85.1822 30.8361 85.1822 30.3477C85.1822 29.8593 85.0858 29.4222 84.8929 29.0495ZM84.0679 31.1446C83.9608 31.376 83.8215 31.5559 83.6393 31.6716C83.4572 31.8001 83.2536 31.8644 83.0393 31.8644C82.8143 31.8644 82.6108 31.8001 82.4393 31.6716C82.2572 31.5431 82.1179 31.376 82.0108 31.1446C81.9036 30.9261 81.8608 30.6562 81.8608 30.3606C81.8608 30.0649 81.9143 29.8079 82.0108 29.5765C82.1179 29.3451 82.2572 29.178 82.4393 29.0495C82.6215 28.921 82.8143 28.8695 83.0393 28.8695C83.2643 28.8695 83.4572 28.9338 83.6393 29.0495C83.8215 29.178 83.9608 29.3451 84.0679 29.5765C84.1751 29.8079 84.2179 30.0778 84.2179 30.3606C84.2179 30.6562 84.1643 30.9132 84.0679 31.1446Z" fill="white"/>
<path d="M89.9608 31.0204C89.8212 30.8714 89.635 30.7568 89.3907 30.6995C89.3442 30.6881 89.2976 30.6766 89.2395 30.6651C89.0417 30.6308 88.8207 30.6078 88.588 30.6078H87.2153V31.0433H88.4717C88.588 31.0433 88.7044 31.0547 88.7974 31.0891C88.8905 31.112 88.9603 31.1464 89.0184 31.2037C89.0766 31.2496 89.1115 31.3068 89.1464 31.3756C89.1697 31.4329 89.1929 31.5017 89.1929 31.5819C89.1929 31.7194 89.1348 31.8454 89.0301 31.9486C88.9137 32.0517 88.7392 32.109 88.4833 32.109H87.2269V32.8538H88.7858C89.286 32.8538 89.6466 32.7392 89.856 32.5101C90.0654 32.2809 90.1818 32.0173 90.1818 31.6965C90.1701 31.3871 90.0887 31.1693 89.9608 31.0204ZM89.763 29.0494C89.6234 28.8775 89.4489 28.7629 89.2278 28.6827C89.0068 28.6025 88.7625 28.5681 88.4833 28.5681H87.2037V29.313H88.367C88.5531 29.313 88.716 29.3588 88.8207 29.4505C88.937 29.5421 88.9835 29.6567 88.9835 29.8057C88.9835 29.8745 88.9603 29.9432 88.937 30.0005C88.9021 30.0693 88.8556 30.1151 88.8091 30.1724C88.7509 30.2182 88.6927 30.2641 88.6229 30.287C88.5415 30.3099 88.4601 30.3328 88.367 30.3328H87.2037V30.8141H88.4833C88.7509 30.8141 89.0068 30.7683 89.2278 30.6995L89.2395 30.6881C89.4605 30.6308 89.635 30.5047 89.763 30.3557C89.9026 30.1953 89.9724 29.989 89.9724 29.7599C89.9724 29.439 89.9026 29.2213 89.763 29.0494ZM86.6104 32.8309H87.6108V28.5681H86.6104V32.8309Z" fill="white"/>
<path d="M94.2586 28.5389C94.1228 28.3192 93.9244 28.1513 93.6842 28.035C93.444 27.9058 93.1621 27.8541 92.8488 27.8541C92.4937 27.8541 92.1909 27.9187 91.9194 28.035C91.6583 28.1642 91.4286 28.2805 91.251 28.4226L91.6165 29.2236C91.6792 29.1849 91.7627 29.1203 91.8776 29.0428C91.9925 28.9782 92.1282 28.9136 92.2849 28.849C92.4415 28.7844 92.619 28.7585 92.807 28.7585C93.0263 28.7585 93.2038 28.8231 93.35 28.9394C93.4962 29.0686 93.5693 29.2366 93.5693 29.4562V32.7637H94.4674V29.3399C94.4674 29.0298 94.3943 28.7456 94.2586 28.5389ZM92.2013 30.6319C92.3267 30.5673 92.4937 30.5285 92.6921 30.5285C92.9219 30.5285 93.1412 30.5673 93.3187 30.6319C93.4023 30.6707 93.4858 30.7094 93.5693 30.774C93.6633 30.8257 93.7573 30.9032 93.8513 30.9807V30.3864C93.7991 30.3089 93.726 30.2314 93.6111 30.1409C93.6007 30.128 93.5902 30.128 93.5798 30.1151C93.4649 30.0376 93.3292 29.9601 93.1725 29.9084C92.995 29.8309 92.7966 29.805 92.5668 29.805C92.2327 29.805 91.9403 29.8696 91.6792 29.9859C91.4286 30.1151 91.2302 30.296 91.0944 30.5285C90.9586 30.7611 90.896 31.0583 90.896 31.3813C90.896 31.7043 90.9482 31.9756 91.0735 32.1952C91.1988 32.4148 91.3555 32.5828 91.5643 32.6862C91.7732 32.7895 92.0029 32.8541 92.2536 32.8541C92.5251 32.8541 92.7652 32.7895 92.995 32.6732C93.2143 32.557 93.3918 32.389 93.5171 32.1694C93.538 32.1306 93.5589 32.1048 93.5798 32.0531C93.6738 31.8593 93.7155 31.6397 93.7155 31.3813L93.5798 30.8386C93.5798 31.1099 93.538 31.3296 93.444 31.4975C93.3605 31.6655 93.2247 31.7947 93.0681 31.8593C92.9114 31.9368 92.7339 31.9756 92.5355 31.9756C92.3998 31.9756 92.2744 31.9497 92.1805 31.898C92.076 31.8464 91.982 31.7689 91.9194 31.6784C91.8567 31.5751 91.815 31.4588 91.815 31.3167C91.815 31.1487 91.8567 31.0066 91.9194 30.8774C91.9716 30.7869 92.0656 30.7094 92.2013 30.6319Z" fill="white"/>
<path d="M99.7081 32.8538H100.896V28.5681H99.7081V32.8538ZM96.4209 30.999H100.357V30.1695H96.4209V30.999ZM95.896 32.8538H97.0838V28.5681H95.896V32.8538Z" fill="white"/>
<path d="M105.602 32.8538H106.611V28.5681H105.602V32.8538ZM102.776 30.999H106.16V30.1695H102.776V30.999ZM102.325 32.8538H103.346V28.5681H102.325V32.8538Z" fill="white"/>
<path d="M112.059 32.8538H113.039V28.5681H112.059V32.8538ZM111.079 30.446C110.79 30.2271 110.433 30.1234 110.01 30.1234H108.718V30.8723H109.921C110.133 30.8723 110.3 30.9299 110.411 31.022C110.522 31.1257 110.589 31.264 110.589 31.4483C110.589 31.5635 110.556 31.6672 110.511 31.7594C110.456 31.84 110.378 31.9206 110.289 31.9552C110.188 32.0013 110.077 32.0243 109.932 32.0243H108.729V32.8538H110.021C110.311 32.8538 110.567 32.7962 110.79 32.6925C111.012 32.5889 111.191 32.4276 111.324 32.2202C111.458 32.0128 111.525 31.7594 111.525 31.4483C111.513 30.9875 111.369 30.6534 111.079 30.446ZM108.039 32.8538H109.008V28.5681H108.039V32.8538Z" fill="white"/>
<path d="M118.504 29.004C118.334 28.6422 118.097 28.358 117.78 28.1513C117.464 27.9575 117.091 27.8541 116.661 27.8541C116.265 27.8541 115.904 27.9316 115.61 28.0996C115.304 28.2676 115.056 28.5001 114.875 28.7973C114.683 29.1074 114.57 29.4433 114.513 29.8438C114.502 29.9213 114.49 29.9988 114.479 30.0893C114.479 30.1668 114.468 30.2572 114.468 30.3477C114.468 30.8257 114.558 31.265 114.728 31.6397C114.909 32.0143 115.157 32.3115 115.485 32.5311C115.802 32.7508 116.186 32.8541 116.616 32.8541C117 32.8541 117.317 32.8024 117.577 32.6862C117.837 32.5828 118.052 32.4278 118.232 32.234C118.413 32.0402 118.572 31.8205 118.707 31.5621L117.859 31.1616C117.78 31.3167 117.679 31.4459 117.565 31.5621C117.452 31.6784 117.317 31.7689 117.17 31.8335C117.023 31.8981 116.853 31.9368 116.661 31.9368C116.424 31.9368 116.209 31.8722 116.028 31.7689C115.847 31.6526 115.711 31.4717 115.61 31.2391C115.53 31.0583 115.485 30.8645 115.463 30.619H118.741C118.753 30.5544 118.753 30.4898 118.753 30.4381V30.296C118.764 29.805 118.673 29.3658 118.504 29.004ZM115.485 29.8567C115.508 29.6758 115.553 29.5079 115.632 29.3399C115.734 29.1332 115.87 28.9782 116.051 28.8748C116.231 28.7585 116.424 28.7068 116.638 28.7068C116.853 28.7068 117.034 28.7585 117.181 28.849C117.328 28.9523 117.441 29.0815 117.52 29.2495C117.599 29.4174 117.656 29.6242 117.679 29.8567H115.485Z" fill="white"/>
<path d="M123.039 26.4253H122.325V33.5681H123.039V26.4253Z" fill="white"/>
<path d="M124.467 26.4253V27.5339H126.353V33.5681H127.569V27.5339H129.467V26.4253H124.467Z" fill="white"/>
<path d="M133.753 29.9968H132.325V31.4254H133.753V29.9968Z" fill="white"/>
<path d="M142.723 29.0021C142.509 28.6322 142.231 28.3388 141.89 28.1475C141.537 27.9562 141.158 27.8541 140.754 27.8541C140.35 27.8541 139.996 27.9562 139.706 28.1603C139.478 28.3133 139.302 28.5174 139.15 28.7725C139.1 28.849 139.049 28.9256 139.024 29.0148C138.872 29.3847 138.784 29.8312 138.784 30.3414C138.784 30.8516 138.86 31.298 139.024 31.6679C139.062 31.7572 139.1 31.8337 139.15 31.9102C139.302 32.1653 139.478 32.3694 139.706 32.5225C139.996 32.7266 140.35 32.8286 140.754 32.8286C141.158 32.8286 141.537 32.7266 141.89 32.5352C142.231 32.3439 142.509 32.0633 142.723 31.6807C142.925 31.3108 143.039 30.8643 143.039 30.3286C143.039 29.8184 142.938 29.372 142.723 29.0021ZM141.701 31.1577C141.574 31.3745 141.41 31.5403 141.183 31.6551C140.968 31.7699 140.728 31.8337 140.476 31.8337C140.261 31.8337 140.059 31.7699 139.857 31.6551C139.655 31.5403 139.478 31.3745 139.352 31.1577C139.226 30.9409 139.15 30.6602 139.15 30.3414C139.15 30.0097 139.226 29.7419 139.352 29.525C139.478 29.3082 139.655 29.1424 139.857 29.0276C140.059 28.9128 140.274 28.8618 140.476 28.8618C140.741 28.8618 140.968 28.9128 141.183 29.0276C141.398 29.1424 141.562 29.3082 141.701 29.5378C141.827 29.7546 141.903 30.0225 141.903 30.3414C141.903 30.6602 141.84 30.9281 141.701 31.1577ZM138.039 34.997H139.15V27.9817H138.039V34.997Z" fill="white"/>
<path d="M147.758 29.004C147.561 28.6422 147.284 28.358 146.901 28.1513C146.545 27.9575 146.11 27.8541 145.596 27.8541C145.135 27.8541 144.726 27.9316 144.37 28.0996C144.015 28.2676 143.725 28.5001 143.514 28.7973C143.303 29.1074 143.158 29.4433 143.079 29.8438C143.065 29.9213 143.052 29.9988 143.052 30.0893C143.039 30.1668 143.039 30.2572 143.039 30.3477C143.039 30.8257 143.145 31.265 143.342 31.6397C143.553 32.0143 143.843 32.3115 144.212 32.5311C144.595 32.7508 145.03 32.8541 145.53 32.8541C145.979 32.8541 146.361 32.8024 146.651 32.6862C146.954 32.5828 147.205 32.4278 147.416 32.234C147.626 32.0402 147.811 31.8205 147.969 31.5621L146.98 31.1616C146.888 31.3167 146.783 31.4459 146.651 31.5621C146.519 31.6784 146.361 31.7689 146.19 31.8335C146.005 31.8981 145.807 31.9368 145.583 31.9368C145.306 31.9368 145.069 31.8722 144.845 31.7689C144.634 31.6526 144.476 31.4717 144.357 31.2391C144.265 31.0583 144.225 30.8645 144.199 30.619H148.009C148.022 30.5544 148.035 30.4898 148.035 30.4381V30.296C148.061 29.805 147.956 29.3658 147.758 29.004ZM144.239 29.8567C144.265 29.6758 144.318 29.5079 144.41 29.3399C144.542 29.1332 144.7 28.9782 144.898 28.8748C145.109 28.7585 145.346 28.7068 145.596 28.7068C145.847 28.7068 146.045 28.7585 146.216 28.849C146.387 28.9523 146.519 29.0815 146.611 29.2495C146.704 29.4174 146.77 29.6242 146.796 29.8567H144.239Z" fill="white"/>
<path d="M154.754 28.5681V31.9667H152.882V28.5681H151.741V31.9667H149.895V28.5681H148.753V32.8538H155.896V28.5681H154.754Z" fill="white"/>
<path d="M161.33 29.004C161.132 28.6422 160.855 28.358 160.473 28.1513C160.117 27.9575 159.682 27.8541 159.168 27.8541C158.706 27.8541 158.298 27.9316 157.942 28.0996C157.586 28.2676 157.296 28.5001 157.085 28.7973C156.874 29.1074 156.729 29.4433 156.65 29.8438C156.637 29.9213 156.637 29.9988 156.624 30.0893C156.61 30.1668 156.61 30.2572 156.61 30.3477C156.61 30.8257 156.703 31.265 156.914 31.6397C157.124 32.0143 157.414 32.3115 157.784 32.5311C158.166 32.7508 158.614 32.8541 159.102 32.8541C159.55 32.8541 159.919 32.8024 160.235 32.6862C160.539 32.5828 160.789 32.4278 161 32.234C161.211 32.0402 161.395 31.8205 161.554 31.5621L160.565 31.1616C160.46 31.3167 160.354 31.4459 160.222 31.5621C160.09 31.6784 159.932 31.7689 159.761 31.8335C159.576 31.8981 159.379 31.9368 159.154 31.9368C158.878 31.9368 158.64 31.8722 158.429 31.7689C158.219 31.6526 158.047 31.4717 157.929 31.2391C157.849 31.0583 157.797 30.8645 157.77 30.619H161.593C161.606 30.5544 161.606 30.4898 161.606 30.4381V30.296C161.633 29.805 161.527 29.3658 161.33 29.004ZM157.81 29.8567C157.836 29.6758 157.889 29.5079 157.981 29.3399C158.113 29.1332 158.271 28.9782 158.482 28.8748C158.68 28.7585 158.917 28.7068 159.168 28.7068C159.418 28.7068 159.629 28.7585 159.8 28.849C159.972 28.9523 160.104 29.0815 160.209 29.2495C160.301 29.4174 160.367 29.6242 160.394 29.8567H157.81Z" fill="white"/>
<path d="M165.055 32.8538H165.896V28.5681H165.055V32.8538ZM162.701 30.999H165.52V30.1695H162.701V30.999ZM162.325 32.8538H163.176V28.5681H162.325V32.8538Z" fill="white"/>
<path d="M170.712 29.008V32.5278H171.61V27.8541L170.712 29.008ZM168.039 28.1921V32.8541L168.948 31.7119V28.1921H168.039ZM168.948 30.663L168.081 31.5721L168.039 32.8425L170.712 30.0336L171.579 29.1245L171.61 27.8541L168.948 30.663Z" fill="white"/>
<path d="M176.012 32.8538H177.325V28.5681H176.012V32.8538ZM174.37 29.4552C174.504 29.4206 174.683 29.3976 174.877 29.3976H176.504V28.5681H174.788C174.415 28.5681 174.057 28.6027 173.728 28.6948C173.415 28.787 173.161 28.9137 172.952 29.1096C172.758 29.3054 172.668 29.5589 172.668 29.87C172.668 30.181 172.758 30.446 172.952 30.6418C173.146 30.8377 173.4 30.9875 173.728 31.0796C173.788 31.0912 173.848 31.1142 173.907 31.1142C174.191 31.1833 174.474 31.2064 174.788 31.2064H176.504V30.4345H174.877C174.683 30.4345 174.504 30.423 174.37 30.3769C174.221 30.3423 174.116 30.2847 174.057 30.2156C173.982 30.1349 173.952 30.0428 173.952 29.916C173.952 29.8008 173.982 29.6971 174.057 29.628C174.131 29.5474 174.236 29.4898 174.37 29.4552ZM174.236 30.7225L173.892 31.1027L172.325 32.8423H173.713L175.146 31.1948L175.564 30.7225H174.236Z" fill="white"/>
<path d="M24.4678 27.8541H0.182129V32.8541H24.4678V27.8541Z" fill="white"/>
<path d="M5.02543 -0.0032959H24.1329C24.4228 -0.0032959 24.5798 0.337636 24.3745 0.54925L20.3766 4.71099H5.82258C5.38777 4.71099 5.02543 5.05192 5.02543 5.4869V18.0779C5.02543 18.5011 5.37569 18.8538 5.82258 18.8538H18.7582C19.193 18.8538 19.5553 18.5129 19.5553 18.0779V14.9155C19.5553 14.4922 19.2051 14.1396 18.7582 14.1396H14.3255L10.5209 10.1071C10.2673 9.8485 10.4606 9.42527 10.835 9.42527H19.5553C22.2246 9.42527 24.3986 11.5414 24.3986 14.1396V18.8538C24.3986 21.452 22.2246 23.5681 19.5553 23.5681H5.02543C2.35618 23.5681 0.182129 21.452 0.182129 18.8538V4.71099C0.182129 2.11284 2.35618 -0.0032959 5.02543 -0.0032959Z" fill="white"/>
<path d="M24.129 -0.0032959H5.02464C2.3679 -0.0032959 0.182129 2.11284 0.182129 4.71099V18.8538C0.182129 21.452 2.35582 23.5681 5.02464 23.5681V5.4869C5.02464 5.06368 5.38692 4.71099 5.82166 4.71099H20.3733L24.3826 0.54925C24.5758 0.337636 24.4188 -0.0032959 24.129 -0.0032959Z" fill="#9EA1A3"/>
<path d="M57.3247 3.56569C57.3247 1.59786 58.9713 -0.0032959 60.9796 -0.0032959H73.1545C73.4913 -0.0032959 73.7533 0.253377 73.7533 0.583386V2.979C73.7533 3.30901 73.4913 3.56569 73.1545 3.56569H61.5784C61.2416 3.56569 60.9796 3.82236 60.9796 4.15237V6.54799C60.9796 6.878 61.2416 7.13467 61.5784 7.13467H73.1545C73.4913 7.13467 73.7533 7.39134 73.7533 7.72135V10.117C73.7533 10.447 73.4913 10.7037 73.1545 10.7037H61.5784C61.2416 10.7037 60.9796 10.9603 60.9796 11.2903V13.6982C60.9796 14.0282 61.2416 14.2849 61.5784 14.2849H73.1545C73.4913 14.2849 73.7533 14.5415 73.7533 14.8715V17.2672C73.7533 17.5972 73.4913 17.8538 73.1545 17.8538H60.9796C58.9713 17.8538 57.3247 16.2405 57.3247 14.2726V3.56569Z" fill="white"/>
<path d="M89.6061 -0.0032959H79.318C77.4432 -0.0032959 75.8965 1.60787 75.8965 3.56081V14.2775C75.8965 16.2427 77.4432 17.8538 79.318 17.8538H89.6061C91.4926 17.8538 93.0393 16.2427 93.0393 14.2775V3.56081C93.0393 1.59567 91.4926 -0.0032959 89.6061 -0.0032959ZM89.6061 13.6916C89.6061 14.0212 89.36 14.2775 89.0436 14.2775H79.8805C79.5641 14.2775 79.318 14.0212 79.318 13.6916V4.14669C79.318 3.80492 79.5641 3.56081 79.8805 3.56081H89.0436C89.36 3.56081 89.6061 3.81713 89.6061 4.14669V13.6916Z" fill="white"/>
<path d="M119.612 -0.0032959H117.288C116.956 -0.0032959 116.541 0.204346 116.34 0.44863C113.565 3.73424 110.79 7.03207 108.039 10.3299L99.7381 0.44863C99.5128 0.143275 99.1689 -0.0032959 98.8013 -0.0032959H96.4771C96.145 -0.0032959 95.9079 0.253201 95.9079 0.582984V1.35248L99.6788 5.83508L103.236 10.0734C104.719 11.8322 106.189 13.5911 107.683 15.3621C107.778 15.4599 107.932 15.5331 108.051 15.5331C108.193 15.5331 108.323 15.4599 108.43 15.3621C111.075 12.1865 113.707 9.04741 116.351 5.90837C116.553 5.65187 116.731 5.73737 116.731 6.03051V17.2676C116.731 17.6096 116.98 17.8538 117.3 17.8538H119.624C119.921 17.8538 120.182 17.5973 120.182 17.2676V0.57077C120.182 0.240987 119.933 -0.0032959 119.612 -0.0032959ZM95.896 17.2676C95.896 17.6096 96.1687 17.8538 96.4889 17.8538H98.7894C99.1096 17.8538 99.3586 17.5973 99.3586 17.2676V10.0612L95.896 6.12822V17.2676Z" fill="white"/>
<path d="M56.3677 -0.0032959H43.0117C41.0589 -0.0032959 39.4678 1.59911 39.4678 3.5657V14.2848C39.4678 16.2514 41.0589 17.8538 43.0117 17.8538V4.1484C43.0117 3.83277 43.2769 3.5657 43.5903 3.5657H53.6073L56.5365 0.409446C56.6932 0.251633 56.5847 -0.0032959 56.3677 -0.0032959Z" fill="white"/>
<path d="M160.843 17.4022C160.894 17.4999 160.92 17.6097 160.868 17.7074C160.843 17.805 160.727 17.8538 160.624 17.8538H156.904C156.493 17.8538 156.121 17.7074 155.878 17.4022L150.528 11.5434L150.489 11.5068L148.27 9.44402C147.962 9.16328 147.962 8.69946 148.27 8.40652L150.528 6.30712L155.878 0.460527C156.121 0.155381 156.493 -0.0032959 156.904 -0.0032959H160.624C160.727 -0.0032959 160.843 0.0455285 160.868 0.143175C160.92 0.240822 160.894 0.338468 160.843 0.448321L153.543 8.45535C153.299 8.71167 153.299 9.11446 153.543 9.37078L160.843 17.4022Z" fill="white"/>
</svg>
